<?xml version="1.0" encoding="utf-8" standalone="no"?>
<!DOCTYPE svg PUBLIC "-//W3C//DTD SVG 1.1//EN"
  "http://www.w3.org/Graphics/SVG/1.1/DTD/svg11.dtd">
<svg xmlns:xlink="http://www.w3.org/1999/xlink" width="450pt" height="711.36pt" viewBox="0 0 450 711.36" xmlns="http://www.w3.org/2000/svg" version="1.1">
 <metadata>
  <rdf:RDF xmlns:dc="http://purl.org/dc/elements/1.1/" xmlns:cc="http://creativecommons.org/ns#" xmlns:rdf="http://www.w3.org/1999/02/22-rdf-syntax-ns#">
   <cc:Work>
    <dc:type rdf:resource="http://purl.org/dc/dcmitype/StillImage"/>
    <dc:date>2023-11-10T23:28:24.087512</dc:date>
    <dc:format>image/svg+xml</dc:format>
    <dc:creator>
     <cc:Agent>
      <dc:title>Matplotlib v3.8.1, https://matplotlib.org/</dc:title>
     </cc:Agent>
    </dc:creator>
   </cc:Work>
  </rdf:RDF>
 </metadata>
 <defs>
  <style type="text/css">*{stroke-linejoin: round; stroke-linecap: butt}</style>
 </defs>
 <g id="figure_1">
  <g id="patch_1">
   <path d="M 0 711.36 
L 450 711.36 
L 450 0 
L 0 0 
z
" style="fill: #ffffff"/>
  </g>
  <g id="axes_1">
   <g id="patch_2">
    <path d="M 56.25 633.1104 
L 405 633.1104 
L 405 85.3632 
L 56.25 85.3632 
z
" style="fill: #ffffff"/>
   </g>
   <g id="PathCollection_1">
    <defs>
     <path id="m2cc9d06b2e" d="M 0 3 
C 0.795609 3 1.55874 2.683901 2.12132 2.12132 
C 2.683901 1.55874 3 0.795609 3 0 
C 3 -0.795609 2.683901 -1.55874 2.12132 -2.12132 
C 1.55874 -2.683901 0.795609 -3 0 -3 
C -0.795609 -3 -1.55874 -2.683901 -2.12132 -2.12132 
C -2.683901 -1.55874 -3 -0.795609 -3 0 
C -3 0.795609 -2.683901 1.55874 -2.12132 2.12132 
C -1.55874 2.683901 -0.795609 3 0 3 
z
" style="stroke: #ff0000"/>
    </defs>
    <g clip-path="url(#p5111aeefc7)">
     <use xlink:href="#m2cc9d06b2e" x="72.102273" y="135.395816" style="fill: #ff0000; stroke: #ff0000"/>
     <use xlink:href="#m2cc9d06b2e" x="86.463486" y="136.072696" style="fill: #ff0000; stroke: #ff0000"/>
     <use xlink:href="#m2cc9d06b2e" x="101.088551" y="180.602289" style="fill: #ff0000; stroke: #ff0000"/>
     <use xlink:href="#m2cc9d06b2e" x="115.713766" y="184.888059" style="fill: #ff0000; stroke: #ff0000"/>
     <use xlink:href="#m2cc9d06b2e" x="130.327769" y="207.582366" style="fill: #ff0000; stroke: #ff0000"/>
     <use xlink:href="#m2cc9d06b2e" x="144.957695" y="190.367966" style="fill: #ff0000; stroke: #ff0000"/>
     <use xlink:href="#m2cc9d06b2e" x="159.574428" y="215.450092" style="fill: #ff0000; stroke: #ff0000"/>
     <use xlink:href="#m2cc9d06b2e" x="174.196932" y="238.499921" style="fill: #ff0000; stroke: #ff0000"/>
     <use xlink:href="#m2cc9d06b2e" x="188.820444" y="260.407656" style="fill: #ff0000; stroke: #ff0000"/>
     <use xlink:href="#m2cc9d06b2e" x="203.440642" y="262.295142" style="fill: #ff0000; stroke: #ff0000"/>
     <use xlink:href="#m2cc9d06b2e" x="218.068571" y="218.210653" style="fill: #ff0000; stroke: #ff0000"/>
     <use xlink:href="#m2cc9d06b2e" x="232.700428" y="190.622643" style="fill: #ff0000; stroke: #ff0000"/>
     <use xlink:href="#m2cc9d06b2e" x="247.305532" y="272.823802" style="fill: #ff0000; stroke: #ff0000"/>
     <use xlink:href="#m2cc9d06b2e" x="261.93123" y="363.870564" style="fill: #ff0000; stroke: #ff0000"/>
     <use xlink:href="#m2cc9d06b2e" x="276.553485" y="399.54215" style="fill: #ff0000; stroke: #ff0000"/>
     <use xlink:href="#m2cc9d06b2e" x="291.190676" y="462.850318" style="fill: #ff0000; stroke: #ff0000"/>
     <use xlink:href="#m2cc9d06b2e" x="305.803198" y="489.001332" style="fill: #ff0000; stroke: #ff0000"/>
     <use xlink:href="#m2cc9d06b2e" x="320.425093" y="535.074926" style="fill: #ff0000; stroke: #ff0000"/>
     <use xlink:href="#m2cc9d06b2e" x="335.045443" y="555.861453" style="fill: #ff0000; stroke: #ff0000"/>
     <use xlink:href="#m2cc9d06b2e" x="349.670826" y="568.127853" style="fill: #ff0000; stroke: #ff0000"/>
     <use xlink:href="#m2cc9d06b2e" x="364.289848" y="590.257031" style="fill: #ff0000; stroke: #ff0000"/>
     <use xlink:href="#m2cc9d06b2e" x="378.911081" y="605.391871" style="fill: #ff0000; stroke: #ff0000"/>
    </g>
   </g>
   <g id="matplotlib.axis_1">
    <g id="xtick_1">
     <g id="line2d_1">
      <defs>
       <path id="mc4615fe800" d="M 0 0 
L 0 3.5 
" style="stroke: #000000; stroke-width: 0.8"/>
      </defs>
      <g>
       <use xlink:href="#mc4615fe800" x="58.896423" y="633.1104" style="stroke: #000000; stroke-width: 0.8"/>
      </g>
     </g>
     <g id="text_1">
      <!-- 0 -->
      <g transform="translate(55.715173 647.708838) scale(0.1 -0.1)">
       <defs>
        <path id="DejaVuSans-30" d="M 2034 4250 
Q 1547 4250 1301 3770 
Q 1056 3291 1056 2328 
Q 1056 1369 1301 889 
Q 1547 409 2034 409 
Q 2525 409 2770 889 
Q 3016 1369 3016 2328 
Q 3016 3291 2770 3770 
Q 2525 4250 2034 4250 
z
M 2034 4750 
Q 2819 4750 3233 4129 
Q 3647 3509 3647 2328 
Q 3647 1150 3233 529 
Q 2819 -91 2034 -91 
Q 1250 -91 836 529 
Q 422 1150 422 2328 
Q 422 3509 836 4129 
Q 1250 4750 2034 4750 
z
" transform="scale(0.015625)"/>
       </defs>
       <use xlink:href="#DejaVuSans-30"/>
      </g>
     </g>
    </g>
    <g id="xtick_2">
     <g id="line2d_2">
      <g>
       <use xlink:href="#mc4615fe800" x="132.008653" y="633.1104" style="stroke: #000000; stroke-width: 0.8"/>
      </g>
     </g>
     <g id="text_2">
      <!-- 100 -->
      <g transform="translate(122.464903 647.708838) scale(0.1 -0.1)">
       <defs>
        <path id="DejaVuSans-31" d="M 794 531 
L 1825 531 
L 1825 4091 
L 703 3866 
L 703 4441 
L 1819 4666 
L 2450 4666 
L 2450 531 
L 3481 531 
L 3481 0 
L 794 0 
L 794 531 
z
" transform="scale(0.015625)"/>
       </defs>
       <use xlink:href="#DejaVuSans-31"/>
       <use xlink:href="#DejaVuSans-30" x="63.623047"/>
       <use xlink:href="#DejaVuSans-30" x="127.246094"/>
      </g>
     </g>
    </g>
    <g id="xtick_3">
     <g id="line2d_3">
      <g>
       <use xlink:href="#mc4615fe800" x="205.120884" y="633.1104" style="stroke: #000000; stroke-width: 0.8"/>
      </g>
     </g>
     <g id="text_3">
      <!-- 200 -->
      <g transform="translate(195.577134 647.708838) scale(0.1 -0.1)">
       <defs>
        <path id="DejaVuSans-32" d="M 1228 531 
L 3431 531 
L 3431 0 
L 469 0 
L 469 531 
Q 828 903 1448 1529 
Q 2069 2156 2228 2338 
Q 2531 2678 2651 2914 
Q 2772 3150 2772 3378 
Q 2772 3750 2511 3984 
Q 2250 4219 1831 4219 
Q 1534 4219 1204 4116 
Q 875 4013 500 3803 
L 500 4441 
Q 881 4594 1212 4672 
Q 1544 4750 1819 4750 
Q 2544 4750 2975 4387 
Q 3406 4025 3406 3419 
Q 3406 3131 3298 2873 
Q 3191 2616 2906 2266 
Q 2828 2175 2409 1742 
Q 1991 1309 1228 531 
z
" transform="scale(0.015625)"/>
       </defs>
       <use xlink:href="#DejaVuSans-32"/>
       <use xlink:href="#DejaVuSans-30" x="63.623047"/>
       <use xlink:href="#DejaVuSans-30" x="127.246094"/>
      </g>
     </g>
    </g>
    <g id="xtick_4">
     <g id="line2d_4">
      <g>
       <use xlink:href="#mc4615fe800" x="278.233115" y="633.1104" style="stroke: #000000; stroke-width: 0.8"/>
      </g>
     </g>
     <g id="text_4">
      <!-- 300 -->
      <g transform="translate(268.689365 647.708838) scale(0.1 -0.1)">
       <defs>
        <path id="DejaVuSans-33" d="M 2597 2516 
Q 3050 2419 3304 2112 
Q 3559 1806 3559 1356 
Q 3559 666 3084 287 
Q 2609 -91 1734 -91 
Q 1441 -91 1130 -33 
Q 819 25 488 141 
L 488 750 
Q 750 597 1062 519 
Q 1375 441 1716 441 
Q 2309 441 2620 675 
Q 2931 909 2931 1356 
Q 2931 1769 2642 2001 
Q 2353 2234 1838 2234 
L 1294 2234 
L 1294 2753 
L 1863 2753 
Q 2328 2753 2575 2939 
Q 2822 3125 2822 3475 
Q 2822 3834 2567 4026 
Q 2313 4219 1838 4219 
Q 1578 4219 1281 4162 
Q 984 4106 628 3988 
L 628 4550 
Q 988 4650 1302 4700 
Q 1616 4750 1894 4750 
Q 2613 4750 3031 4423 
Q 3450 4097 3450 3541 
Q 3450 3153 3228 2886 
Q 3006 2619 2597 2516 
z
" transform="scale(0.015625)"/>
       </defs>
       <use xlink:href="#DejaVuSans-33"/>
       <use xlink:href="#DejaVuSans-30" x="63.623047"/>
       <use xlink:href="#DejaVuSans-30" x="127.246094"/>
      </g>
     </g>
    </g>
    <g id="xtick_5">
     <g id="line2d_5">
      <g>
       <use xlink:href="#mc4615fe800" x="351.345345" y="633.1104" style="stroke: #000000; stroke-width: 0.8"/>
      </g>
     </g>
     <g id="text_5">
      <!-- 400 -->
      <g transform="translate(341.801595 647.708838) scale(0.1 -0.1)">
       <defs>
        <path id="DejaVuSans-34" d="M 2419 4116 
L 825 1625 
L 2419 1625 
L 2419 4116 
z
M 2253 4666 
L 3047 4666 
L 3047 1625 
L 3713 1625 
L 3713 1100 
L 3047 1100 
L 3047 0 
L 2419 0 
L 2419 1100 
L 313 1100 
L 313 1709 
L 2253 4666 
z
" transform="scale(0.015625)"/>
       </defs>
       <use xlink:href="#DejaVuSans-34"/>
       <use xlink:href="#DejaVuSans-30" x="63.623047"/>
       <use xlink:href="#DejaVuSans-30" x="127.246094"/>
      </g>
     </g>
    </g>
   </g>
   <g id="matplotlib.axis_2">
    <g id="ytick_1">
     <g id="line2d_6">
      <defs>
       <path id="m0b1516ac60" d="M 0 0 
L -3.5 0 
" style="stroke: #000000; stroke-width: 0.8"/>
      </defs>
      <g>
       <use xlink:href="#m0b1516ac60" x="56.25" y="573.935669" style="stroke: #000000; stroke-width: 0.8"/>
      </g>
     </g>
     <g id="text_6">
      <!-- 80 -->
      <g transform="translate(36.525 577.734888) scale(0.1 -0.1)">
       <defs>
        <path id="DejaVuSans-38" d="M 2034 2216 
Q 1584 2216 1326 1975 
Q 1069 1734 1069 1313 
Q 1069 891 1326 650 
Q 1584 409 2034 409 
Q 2484 409 2743 651 
Q 3003 894 3003 1313 
Q 3003 1734 2745 1975 
Q 2488 2216 2034 2216 
z
M 1403 2484 
Q 997 2584 770 2862 
Q 544 3141 544 3541 
Q 544 4100 942 4425 
Q 1341 4750 2034 4750 
Q 2731 4750 3128 4425 
Q 3525 4100 3525 3541 
Q 3525 3141 3298 2862 
Q 3072 2584 2669 2484 
Q 3125 2378 3379 2068 
Q 3634 1759 3634 1313 
Q 3634 634 3220 271 
Q 2806 -91 2034 -91 
Q 1263 -91 848 271 
Q 434 634 434 1313 
Q 434 1759 690 2068 
Q 947 2378 1403 2484 
z
M 1172 3481 
Q 1172 3119 1398 2916 
Q 1625 2713 2034 2713 
Q 2441 2713 2670 2916 
Q 2900 3119 2900 3481 
Q 2900 3844 2670 4047 
Q 2441 4250 2034 4250 
Q 1625 4250 1398 4047 
Q 1172 3844 1172 3481 
z
" transform="scale(0.015625)"/>
       </defs>
       <use xlink:href="#DejaVuSans-38"/>
       <use xlink:href="#DejaVuSans-30" x="63.623047"/>
      </g>
     </g>
    </g>
    <g id="ytick_2">
     <g id="line2d_7">
      <g>
       <use xlink:href="#m0b1516ac60" x="56.25" y="456.692413" style="stroke: #000000; stroke-width: 0.8"/>
      </g>
     </g>
     <g id="text_7">
      <!-- 100 -->
      <g transform="translate(30.1625 460.491632) scale(0.1 -0.1)">
       <use xlink:href="#DejaVuSans-31"/>
       <use xlink:href="#DejaVuSans-30" x="63.623047"/>
       <use xlink:href="#DejaVuSans-30" x="127.246094"/>
      </g>
     </g>
    </g>
    <g id="ytick_3">
     <g id="line2d_8">
      <g>
       <use xlink:href="#m0b1516ac60" x="56.25" y="339.449158" style="stroke: #000000; stroke-width: 0.8"/>
      </g>
     </g>
     <g id="text_8">
      <!-- 120 -->
      <g transform="translate(30.1625 343.248377) scale(0.1 -0.1)">
       <use xlink:href="#DejaVuSans-31"/>
       <use xlink:href="#DejaVuSans-32" x="63.623047"/>
       <use xlink:href="#DejaVuSans-30" x="127.246094"/>
      </g>
     </g>
    </g>
    <g id="ytick_4">
     <g id="line2d_9">
      <g>
       <use xlink:href="#m0b1516ac60" x="56.25" y="222.205903" style="stroke: #000000; stroke-width: 0.8"/>
      </g>
     </g>
     <g id="text_9">
      <!-- 140 -->
      <g transform="translate(30.1625 226.005122) scale(0.1 -0.1)">
       <use xlink:href="#DejaVuSans-31"/>
       <use xlink:href="#DejaVuSans-34" x="63.623047"/>
       <use xlink:href="#DejaVuSans-30" x="127.246094"/>
      </g>
     </g>
    </g>
    <g id="ytick_5">
     <g id="line2d_10">
      <g>
       <use xlink:href="#m0b1516ac60" x="56.25" y="104.962648" style="stroke: #000000; stroke-width: 0.8"/>
      </g>
     </g>
     <g id="text_10">
      <!-- 160 -->
      <g transform="translate(30.1625 108.761866) scale(0.1 -0.1)">
       <defs>
        <path id="DejaVuSans-36" d="M 2113 2584 
Q 1688 2584 1439 2293 
Q 1191 2003 1191 1497 
Q 1191 994 1439 701 
Q 1688 409 2113 409 
Q 2538 409 2786 701 
Q 3034 994 3034 1497 
Q 3034 2003 2786 2293 
Q 2538 2584 2113 2584 
z
M 3366 4563 
L 3366 3988 
Q 3128 4100 2886 4159 
Q 2644 4219 2406 4219 
Q 1781 4219 1451 3797 
Q 1122 3375 1075 2522 
Q 1259 2794 1537 2939 
Q 1816 3084 2150 3084 
Q 2853 3084 3261 2657 
Q 3669 2231 3669 1497 
Q 3669 778 3244 343 
Q 2819 -91 2113 -91 
Q 1303 -91 875 529 
Q 447 1150 447 2328 
Q 447 3434 972 4092 
Q 1497 4750 2381 4750 
Q 2619 4750 2861 4703 
Q 3103 4656 3366 4563 
z
" transform="scale(0.015625)"/>
       </defs>
       <use xlink:href="#DejaVuSans-31"/>
       <use xlink:href="#DejaVuSans-36" x="63.623047"/>
       <use xlink:href="#DejaVuSans-30" x="127.246094"/>
      </g>
     </g>
    </g>
   </g>
   <g id="line2d_11">
    <path d="M 72.102273 135.395816 
L 72.837168 111.305169 
L 73.300108 113.632642 
L 74.029526 110.779264 
L 74.76574 110.2608 
L 75.491239 123.428124 
L 76.228468 119.059121 
L 76.952711 131.546673 
L 77.689643 114.289779 
L 78.417776 113.460102 
L 79.151528 113.785023 
L 79.879528 120.432936 
L 80.614976 124.263578 
L 81.342218 130.280355 
L 82.077146 132.132366 
L 82.805004 125.257317 
L 83.538591 126.527199 
L 84.270148 129.024674 
L 85.001702 126.953072 
L 85.731346 134.134113 
L 86.463486 136.072696 
L 87.193231 139.501154 
L 87.922736 137.386605 
L 88.657113 139.052546 
L 89.387898 145.222793 
L 90.121787 148.180002 
L 90.853519 149.843058 
L 91.58067 152.321893 
L 93.047907 149.767962 
L 93.777022 151.444251 
L 94.508561 154.06943 
L 95.243991 155.550375 
L 95.96513 156.69642 
L 96.696444 151.53056 
L 97.427361 153.753941 
L 98.162725 149.536973 
L 98.88875 149.881923 
L 99.625391 154.908327 
L 100.351874 170.911622 
L 101.088551 180.602289 
L 101.814046 183.885865 
L 102.547226 186.624158 
L 103.278458 188.240387 
L 104.009098 188.290157 
L 104.737201 188.750673 
L 105.475483 193.995304 
L 106.202554 194.997163 
L 106.933788 191.099332 
L 107.662763 191.891169 
L 108.398074 193.130621 
L 109.125782 188.525437 
L 110.586456 185.998712 
L 111.324019 185.940431 
L 112.051887 186.473944 
L 112.786608 190.807998 
L 113.512442 186.153447 
L 114.244988 185.329127 
L 115.713766 184.888059 
L 116.437047 187.307496 
L 117.173503 186.555066 
L 117.900597 188.407037 
L 118.638514 189.973494 
L 119.365866 194.869253 
L 120.091925 193.848099 
L 120.829351 197.206745 
L 121.55702 204.04427 
L 122.291113 205.52912 
L 123.018806 204.632816 
L 123.752587 204.322214 
L 124.478624 200.005343 
L 125.214747 201.222178 
L 125.945929 199.90583 
L 126.677246 200.135513 
L 127.408575 201.172402 
L 128.140998 201.137329 
L 128.866676 205.391554 
L 129.603312 205.143969 
L 130.327769 207.582366 
L 131.064378 204.906402 
L 131.789918 205.48783 
L 132.524731 200.777779 
L 133.254647 200.541991 
L 133.984497 197.348636 
L 135.445774 201.482316 
L 136.181179 203.923946 
L 136.909914 199.939169 
L 137.639479 198.134455 
L 138.370407 197.156603 
L 139.10471 195.062411 
L 139.833247 194.811236 
L 140.562218 193.055543 
L 141.293694 193.996948 
L 142.027234 192.239478 
L 142.757552 192.002298 
L 143.490809 192.754425 
L 144.219377 192.453546 
L 144.957695 190.367966 
L 147.143096 196.903296 
L 148.610354 199.669893 
L 149.341368 199.388356 
L 150.073055 199.428471 
L 151.535825 203.065916 
L 152.264606 203.226247 
L 152.993109 203.891435 
L 153.726469 205.961334 
L 154.4548 208.885308 
L 155.189987 209.940142 
L 156.651187 211.372832 
L 157.382001 212.845928 
L 158.115546 213.986622 
L 158.846898 215.826104 
L 159.574428 215.450092 
L 160.312996 213.931273 
L 161.039498 217.647048 
L 161.771818 219.524097 
L 162.503585 219.201757 
L 163.228092 219.842604 
L 163.966419 222.054552 
L 164.694331 224.700866 
L 165.423211 226.029765 
L 166.155381 229.020642 
L 166.888768 230.740979 
L 167.616279 233.253839 
L 168.351439 236.462255 
L 169.078191 236.317394 
L 169.810325 238.535443 
L 170.540777 237.516837 
L 171.274079 236.900391 
L 172.008291 238.325539 
L 172.738038 237.891577 
L 173.469453 238.783252 
L 174.196932 238.499921 
L 174.927727 240.407392 
L 175.658846 241.376719 
L 176.390026 241.559951 
L 178.585851 240.76647 
L 179.312398 245.217874 
L 180.050835 248.045943 
L 180.775945 249.782014 
L 181.511677 250.450783 
L 182.245412 249.674398 
L 182.974572 250.2487 
L 183.701846 251.323201 
L 184.433685 253.049978 
L 185.16745 253.11514 
L 185.895709 252.968488 
L 186.628975 253.007891 
L 187.357307 255.695722 
L 188.088907 257.704084 
L 188.820444 260.407656 
L 189.553601 260.905051 
L 190.284628 262.054693 
L 191.015763 263.829773 
L 191.74302 264.950788 
L 192.480185 265.404875 
L 193.208408 267.119847 
L 194.027635 265.367035 
L 194.670792 265.91773 
L 195.401712 265.890222 
L 196.126962 268.426692 
L 196.858841 271.83367 
L 197.591502 272.838393 
L 198.327543 275.002036 
L 199.0557 272.427352 
L 199.789797 272.323619 
L 201.254691 269.65954 
L 202.715245 263.881927 
L 203.440642 262.295142 
L 204.177026 260.015304 
L 204.90198 259.133376 
L 205.640018 254.867749 
L 206.363448 252.79864 
L 207.102449 249.5191 
L 207.82793 250.502722 
L 209.289601 246.206002 
L 210.026279 245.528372 
L 210.752806 244.563788 
L 211.481631 236.427519 
L 212.944398 231.85607 
L 213.679315 222.773786 
L 214.406771 218.619467 
L 215.144662 213.53022 
L 215.869544 214.403986 
L 216.601724 216.025544 
L 217.331442 215.388682 
L 218.068571 218.210653 
L 218.791798 218.163089 
L 219.52452 216.160174 
L 220.9868 218.519553 
L 221.721056 219.888172 
L 222.451179 214.49549 
L 223.18063 212.301517 
L 223.914395 209.609819 
L 224.645877 210.239241 
L 225.37959 217.023486 
L 226.105534 207.378019 
L 226.848991 201.602868 
L 227.571327 200.240768 
L 228.303552 202.851985 
L 229.033277 204.91506 
L 229.763248 214.332331 
L 230.496585 208.798667 
L 231.228162 207.051934 
L 232.700428 190.622643 
L 233.416032 188.687708 
L 234.148229 185.558779 
L 234.878491 191.06065 
L 235.615029 192.775588 
L 236.340866 195.818667 
L 237.075346 195.970397 
L 237.809108 192.134478 
L 238.54032 199.419626 
L 239.270773 202.928223 
L 239.997189 199.799697 
L 240.727333 201.60948 
L 241.456256 199.917132 
L 242.19834 209.878601 
L 242.920652 216.311464 
L 243.65308 229.819396 
L 244.381777 233.183769 
L 245.120267 241.06248 
L 246.58361 264.54259 
L 247.305532 272.823802 
L 248.768873 286.273055 
L 250.231223 296.902167 
L 250.962898 305.748372 
L 251.692851 312.530085 
L 252.424728 317.318865 
L 253.156439 323.8097 
L 253.887384 331.734955 
L 255.356041 341.72832 
L 256.083307 345.602954 
L 259.008584 354.673625 
L 259.742116 358.251627 
L 260.4732 361.129406 
L 261.203123 360.658217 
L 261.93123 363.870564 
L 262.665024 366.086439 
L 263.39494 367.509095 
L 264.128967 369.543241 
L 264.855479 365.993214 
L 265.631731 363.697266 
L 266.317886 370.668258 
L 267.052093 375.536827 
L 267.780767 377.305452 
L 268.513853 376.742667 
L 269.243657 379.601136 
L 269.977629 384.121931 
L 270.704403 385.580337 
L 271.434829 380.801254 
L 272.177328 380.785886 
L 272.895392 388.729378 
L 273.630962 381.571322 
L 274.357976 382.101972 
L 277.283274 405.455861 
L 278.020396 409.328677 
L 278.747772 407.546502 
L 279.480917 407.519325 
L 280.206881 410.381375 
L 280.940455 414.925442 
L 281.673518 418.330633 
L 282.408028 419.467027 
L 283.143703 419.820909 
L 283.870256 422.487962 
L 284.598082 429.578828 
L 285.327382 433.175792 
L 286.059665 439.374293 
L 286.794633 442.424899 
L 288.255632 450.119394 
L 288.986361 453.503492 
L 289.72186 461.607997 
L 290.450577 463.064248 
L 291.190676 462.850318 
L 291.915806 465.156713 
L 292.656574 457.303428 
L 293.371273 461.221714 
L 294.100553 460.914413 
L 294.828845 462.032204 
L 297.020851 467.138781 
L 297.761692 471.015897 
L 298.484598 476.382881 
L 299.949347 483.531025 
L 300.684413 486.152283 
L 301.41516 490.320306 
L 302.14661 490.346121 
L 302.878844 489.765451 
L 303.609753 489.454195 
L 304.340832 489.354756 
L 305.071046 487.036257 
L 306.529179 491.019358 
L 307.993298 495.480439 
L 308.72709 500.50146 
L 309.455635 499.180869 
L 310.187096 503.894178 
L 310.917791 504.913575 
L 311.647041 505.729028 
L 312.383629 505.87862 
L 313.849215 511.42204 
L 314.572481 515.19075 
L 315.319203 517.484618 
L 316.040216 520.315542 
L 317.500985 524.428518 
L 318.232431 524.211719 
L 318.963282 527.894567 
L 319.692699 530.671458 
L 320.425093 535.074926 
L 321.154952 535.84604 
L 321.88735 534.61669 
L 322.619649 534.348751 
L 323.347171 532.834961 
L 324.091829 525.2608 
L 324.812533 531.952427 
L 325.542288 534.857453 
L 326.275376 539.006523 
L 327.00586 540.191949 
L 327.737103 540.898997 
L 328.464678 541.04144 
L 329.195475 543.210097 
L 329.926168 546.37487 
L 330.662664 547.298394 
L 331.389107 550.992698 
L 332.125266 554.100211 
L 332.850567 555.517493 
L 333.586095 557.283623 
L 334.310093 556.680057 
L 335.045443 555.861453 
L 335.772433 554.675743 
L 336.510261 557.539597 
L 337.241246 559.643489 
L 337.969112 561.343436 
L 338.703532 560.418925 
L 339.432401 561.882346 
L 340.16594 563.837749 
L 340.893434 564.963774 
L 341.628886 565.607489 
L 342.356149 565.856902 
L 343.092355 567.499949 
L 343.815296 567.482454 
L 344.552373 569.035688 
L 345.277737 570.880893 
L 346.012332 571.080227 
L 346.742634 572.404834 
L 347.521243 570.211564 
L 348.210033 570.542197 
L 348.940484 569.764735 
L 349.670826 568.127853 
L 350.398546 570.398839 
L 351.126569 574.462755 
L 351.861251 575.75123 
L 352.596167 576.599965 
L 353.324064 577.923862 
L 354.058375 578.412295 
L 354.786401 579.156911 
L 355.514595 580.185266 
L 356.247447 581.556392 
L 356.977881 582.512107 
L 357.709224 584.54265 
L 358.441674 585.274742 
L 359.17786 585.605384 
L 359.90183 585.146362 
L 360.638052 585.451239 
L 361.363839 586.357229 
L 362.100946 586.876443 
L 363.558057 589.676645 
L 365.02195 590.837434 
L 365.755206 594.429438 
L 366.481304 595.014518 
L 367.213234 597.400033 
L 367.945832 596.275558 
L 368.674763 595.398313 
L 369.412743 596.561222 
L 370.871973 602.173057 
L 371.598814 604.264449 
L 373.06103 605.423135 
L 373.799347 606.228961 
L 374.526237 607.838757 
L 375.989745 608.2128 
L 376.721235 606.773453 
L 377.452447 605.865798 
L 378.911081 605.391871 
L 379.639711 603.225116 
L 380.373586 603.926121 
L 381.105809 603.917252 
L 384.034457 597.753063 
L 385.498005 594.619263 
L 386.224481 593.909466 
L 386.954755 595.306736 
L 387.686947 593.606194 
L 388.421942 594.132225 
L 389.147727 594.075761 
L 389.147727 594.075761 
" clip-path="url(#p5111aeefc7)" style="fill: none; stroke: #1f77b4; stroke-width: 1.5; stroke-linecap: square"/>
   </g>
   <g id="patch_3">
    <path d="M 56.25 633.1104 
L 56.25 85.3632 
" style="fill: none; stroke: #000000; stroke-width: 0.8; stroke-linejoin: miter; stroke-linecap: square"/>
   </g>
   <g id="patch_4">
    <path d="M 405 633.1104 
L 405 85.3632 
" style="fill: none; stroke: #000000; stroke-width: 0.8; stroke-linejoin: miter; stroke-linecap: square"/>
   </g>
   <g id="patch_5">
    <path d="M 56.25 633.1104 
L 405 633.1104 
" style="fill: none; stroke: #000000; stroke-width: 0.8; stroke-linejoin: miter; stroke-linecap: square"/>
   </g>
   <g id="patch_6">
    <path d="M 56.25 85.3632 
L 405 85.3632 
" style="fill: none; stroke: #000000; stroke-width: 0.8; stroke-linejoin: miter; stroke-linecap: square"/>
   </g>
  </g>
 </g>
 <defs>
  <clipPath id="p5111aeefc7">
   <rect x="56.25" y="85.3632" width="348.75" height="547.7472"/>
  </clipPath>
 </defs>
</svg>
