<?xml version="1.0" encoding="utf-8" standalone="no"?>
<!DOCTYPE svg PUBLIC "-//W3C//DTD SVG 1.1//EN"
  "http://www.w3.org/Graphics/SVG/1.1/DTD/svg11.dtd">
<svg xmlns:xlink="http://www.w3.org/1999/xlink" width="450pt" height="711.36pt" viewBox="0 0 450 711.36" xmlns="http://www.w3.org/2000/svg" version="1.1">
 <metadata>
  <rdf:RDF xmlns:dc="http://purl.org/dc/elements/1.1/" xmlns:cc="http://creativecommons.org/ns#" xmlns:rdf="http://www.w3.org/1999/02/22-rdf-syntax-ns#">
   <cc:Work>
    <dc:type rdf:resource="http://purl.org/dc/dcmitype/StillImage"/>
    <dc:date>2023-11-10T23:28:04.520777</dc:date>
    <dc:format>image/svg+xml</dc:format>
    <dc:creator>
     <cc:Agent>
      <dc:title>Matplotlib v3.8.1, https://matplotlib.org/</dc:title>
     </cc:Agent>
    </dc:creator>
   </cc:Work>
  </rdf:RDF>
 </metadata>
 <defs>
  <style type="text/css">*{stroke-linejoin: round; stroke-linecap: butt}</style>
 </defs>
 <g id="figure_1">
  <g id="patch_1">
   <path d="M 0 711.36 
L 450 711.36 
L 450 0 
L 0 0 
z
" style="fill: #ffffff"/>
  </g>
  <g id="axes_1">
   <g id="patch_2">
    <path d="M 56.25 633.1104 
L 405 633.1104 
L 405 85.3632 
L 56.25 85.3632 
z
" style="fill: #ffffff"/>
   </g>
   <g id="PathCollection_1">
    <defs>
     <path id="m04be7ee155" d="M 0 3 
C 0.795609 3 1.55874 2.683901 2.12132 2.12132 
C 2.683901 1.55874 3 0.795609 3 0 
C 3 -0.795609 2.683901 -1.55874 2.12132 -2.12132 
C 1.55874 -2.683901 0.795609 -3 0 -3 
C -0.795609 -3 -1.55874 -2.683901 -2.12132 -2.12132 
C -2.683901 -1.55874 -3 -0.795609 -3 0 
C -3 0.795609 -2.683901 1.55874 -2.12132 2.12132 
C -1.55874 2.683901 -0.795609 3 0 3 
z
" style="stroke: #ff0000"/>
    </defs>
    <g clip-path="url(#peb097b3426)">
     <use xlink:href="#m04be7ee155" x="284.561749" y="111.314935" style="fill: #ff0000; stroke: #ff0000"/>
     <use xlink:href="#m04be7ee155" x="254.934515" y="125.796424" style="fill: #ff0000; stroke: #ff0000"/>
     <use xlink:href="#m04be7ee155" x="264.399719" y="149.677441" style="fill: #ff0000; stroke: #ff0000"/>
     <use xlink:href="#m04be7ee155" x="255.35567" y="176.009846" style="fill: #ff0000; stroke: #ff0000"/>
     <use xlink:href="#m04be7ee155" x="339.821559" y="199.206534" style="fill: #ff0000; stroke: #ff0000"/>
     <use xlink:href="#m04be7ee155" x="388.628679" y="227.472791" style="fill: #ff0000; stroke: #ff0000"/>
     <use xlink:href="#m04be7ee155" x="387.243652" y="258.557381" style="fill: #ff0000; stroke: #ff0000"/>
     <use xlink:href="#m04be7ee155" x="379.175902" y="287.385018" style="fill: #ff0000; stroke: #ff0000"/>
     <use xlink:href="#m04be7ee155" x="374.077871" y="316.991341" style="fill: #ff0000; stroke: #ff0000"/>
     <use xlink:href="#m04be7ee155" x="371.885679" y="346.930299" style="fill: #ff0000; stroke: #ff0000"/>
     <use xlink:href="#m04be7ee155" x="351.026344" y="373.089239" style="fill: #ff0000; stroke: #ff0000"/>
     <use xlink:href="#m04be7ee155" x="349.394769" y="399.611312" style="fill: #ff0000; stroke: #ff0000"/>
     <use xlink:href="#m04be7ee155" x="357.657861" y="412.90809" style="fill: #ff0000; stroke: #ff0000"/>
     <use xlink:href="#m04be7ee155" x="364.602788" y="430.251756" style="fill: #ff0000; stroke: #ff0000"/>
     <use xlink:href="#m04be7ee155" x="364.768536" y="451.089506" style="fill: #ff0000; stroke: #ff0000"/>
     <use xlink:href="#m04be7ee155" x="372.659189" y="470.846435" style="fill: #ff0000; stroke: #ff0000"/>
     <use xlink:href="#m04be7ee155" x="370.570694" y="493.750519" style="fill: #ff0000; stroke: #ff0000"/>
     <use xlink:href="#m04be7ee155" x="368.859459" y="517.871719" style="fill: #ff0000; stroke: #ff0000"/>
     <use xlink:href="#m04be7ee155" x="331.475469" y="542.079652" style="fill: #ff0000; stroke: #ff0000"/>
     <use xlink:href="#m04be7ee155" x="332.032533" y="569.469052" style="fill: #ff0000; stroke: #ff0000"/>
     <use xlink:href="#m04be7ee155" x="327.279842" y="597.958335" style="fill: #ff0000; stroke: #ff0000"/>
     <use xlink:href="#m04be7ee155" x="182.082684" y="604.433736" style="fill: #ff0000; stroke: #ff0000"/>
    </g>
   </g>
   <g id="matplotlib.axis_1">
    <g id="xtick_1">
     <g id="line2d_1">
      <defs>
       <path id="m97f11fd7c7" d="M 0 0 
L 0 3.5 
" style="stroke: #000000; stroke-width: 0.8"/>
      </defs>
      <g>
       <use xlink:href="#m97f11fd7c7" x="94.421584" y="633.1104" style="stroke: #000000; stroke-width: 0.8"/>
      </g>
     </g>
     <g id="text_1">
      <!-- −40 -->
      <g transform="translate(83.86924 647.708838) scale(0.1 -0.1)">
       <defs>
        <path id="DejaVuSans-2212" d="M 678 2272 
L 4684 2272 
L 4684 1741 
L 678 1741 
L 678 2272 
z
" transform="scale(0.015625)"/>
        <path id="DejaVuSans-34" d="M 2419 4116 
L 825 1625 
L 2419 1625 
L 2419 4116 
z
M 2253 4666 
L 3047 4666 
L 3047 1625 
L 3713 1625 
L 3713 1100 
L 3047 1100 
L 3047 0 
L 2419 0 
L 2419 1100 
L 313 1100 
L 313 1709 
L 2253 4666 
z
" transform="scale(0.015625)"/>
        <path id="DejaVuSans-30" d="M 2034 4250 
Q 1547 4250 1301 3770 
Q 1056 3291 1056 2328 
Q 1056 1369 1301 889 
Q 1547 409 2034 409 
Q 2525 409 2770 889 
Q 3016 1369 3016 2328 
Q 3016 3291 2770 3770 
Q 2525 4250 2034 4250 
z
M 2034 4750 
Q 2819 4750 3233 4129 
Q 3647 3509 3647 2328 
Q 3647 1150 3233 529 
Q 2819 -91 2034 -91 
Q 1250 -91 836 529 
Q 422 1150 422 2328 
Q 422 3509 836 4129 
Q 1250 4750 2034 4750 
z
" transform="scale(0.015625)"/>
       </defs>
       <use xlink:href="#DejaVuSans-2212"/>
       <use xlink:href="#DejaVuSans-34" x="83.789062"/>
       <use xlink:href="#DejaVuSans-30" x="147.412109"/>
      </g>
     </g>
    </g>
    <g id="xtick_2">
     <g id="line2d_2">
      <g>
       <use xlink:href="#m97f11fd7c7" x="141.956625" y="633.1104" style="stroke: #000000; stroke-width: 0.8"/>
      </g>
     </g>
     <g id="text_2">
      <!-- −30 -->
      <g transform="translate(131.404281 647.708838) scale(0.1 -0.1)">
       <defs>
        <path id="DejaVuSans-33" d="M 2597 2516 
Q 3050 2419 3304 2112 
Q 3559 1806 3559 1356 
Q 3559 666 3084 287 
Q 2609 -91 1734 -91 
Q 1441 -91 1130 -33 
Q 819 25 488 141 
L 488 750 
Q 750 597 1062 519 
Q 1375 441 1716 441 
Q 2309 441 2620 675 
Q 2931 909 2931 1356 
Q 2931 1769 2642 2001 
Q 2353 2234 1838 2234 
L 1294 2234 
L 1294 2753 
L 1863 2753 
Q 2328 2753 2575 2939 
Q 2822 3125 2822 3475 
Q 2822 3834 2567 4026 
Q 2313 4219 1838 4219 
Q 1578 4219 1281 4162 
Q 984 4106 628 3988 
L 628 4550 
Q 988 4650 1302 4700 
Q 1616 4750 1894 4750 
Q 2613 4750 3031 4423 
Q 3450 4097 3450 3541 
Q 3450 3153 3228 2886 
Q 3006 2619 2597 2516 
z
" transform="scale(0.015625)"/>
       </defs>
       <use xlink:href="#DejaVuSans-2212"/>
       <use xlink:href="#DejaVuSans-33" x="83.789062"/>
       <use xlink:href="#DejaVuSans-30" x="147.412109"/>
      </g>
     </g>
    </g>
    <g id="xtick_3">
     <g id="line2d_3">
      <g>
       <use xlink:href="#m97f11fd7c7" x="189.491666" y="633.1104" style="stroke: #000000; stroke-width: 0.8"/>
      </g>
     </g>
     <g id="text_3">
      <!-- −20 -->
      <g transform="translate(178.939323 647.708838) scale(0.1 -0.1)">
       <defs>
        <path id="DejaVuSans-32" d="M 1228 531 
L 3431 531 
L 3431 0 
L 469 0 
L 469 531 
Q 828 903 1448 1529 
Q 2069 2156 2228 2338 
Q 2531 2678 2651 2914 
Q 2772 3150 2772 3378 
Q 2772 3750 2511 3984 
Q 2250 4219 1831 4219 
Q 1534 4219 1204 4116 
Q 875 4013 500 3803 
L 500 4441 
Q 881 4594 1212 4672 
Q 1544 4750 1819 4750 
Q 2544 4750 2975 4387 
Q 3406 4025 3406 3419 
Q 3406 3131 3298 2873 
Q 3191 2616 2906 2266 
Q 2828 2175 2409 1742 
Q 1991 1309 1228 531 
z
" transform="scale(0.015625)"/>
       </defs>
       <use xlink:href="#DejaVuSans-2212"/>
       <use xlink:href="#DejaVuSans-32" x="83.789062"/>
       <use xlink:href="#DejaVuSans-30" x="147.412109"/>
      </g>
     </g>
    </g>
    <g id="xtick_4">
     <g id="line2d_4">
      <g>
       <use xlink:href="#m97f11fd7c7" x="237.026708" y="633.1104" style="stroke: #000000; stroke-width: 0.8"/>
      </g>
     </g>
     <g id="text_4">
      <!-- −10 -->
      <g transform="translate(226.474364 647.708838) scale(0.1 -0.1)">
       <defs>
        <path id="DejaVuSans-31" d="M 794 531 
L 1825 531 
L 1825 4091 
L 703 3866 
L 703 4441 
L 1819 4666 
L 2450 4666 
L 2450 531 
L 3481 531 
L 3481 0 
L 794 0 
L 794 531 
z
" transform="scale(0.015625)"/>
       </defs>
       <use xlink:href="#DejaVuSans-2212"/>
       <use xlink:href="#DejaVuSans-31" x="83.789062"/>
       <use xlink:href="#DejaVuSans-30" x="147.412109"/>
      </g>
     </g>
    </g>
    <g id="xtick_5">
     <g id="line2d_5">
      <g>
       <use xlink:href="#m97f11fd7c7" x="284.561749" y="633.1104" style="stroke: #000000; stroke-width: 0.8"/>
      </g>
     </g>
     <g id="text_5">
      <!-- 0 -->
      <g transform="translate(281.380499 647.708838) scale(0.1 -0.1)">
       <use xlink:href="#DejaVuSans-30"/>
      </g>
     </g>
    </g>
    <g id="xtick_6">
     <g id="line2d_6">
      <g>
       <use xlink:href="#m97f11fd7c7" x="332.09679" y="633.1104" style="stroke: #000000; stroke-width: 0.8"/>
      </g>
     </g>
     <g id="text_6">
      <!-- 10 -->
      <g transform="translate(325.73429 647.708838) scale(0.1 -0.1)">
       <use xlink:href="#DejaVuSans-31"/>
       <use xlink:href="#DejaVuSans-30" x="63.623047"/>
      </g>
     </g>
    </g>
    <g id="xtick_7">
     <g id="line2d_7">
      <g>
       <use xlink:href="#m97f11fd7c7" x="379.631831" y="633.1104" style="stroke: #000000; stroke-width: 0.8"/>
      </g>
     </g>
     <g id="text_7">
      <!-- 20 -->
      <g transform="translate(373.269331 647.708838) scale(0.1 -0.1)">
       <use xlink:href="#DejaVuSans-32"/>
       <use xlink:href="#DejaVuSans-30" x="63.623047"/>
      </g>
     </g>
    </g>
   </g>
   <g id="matplotlib.axis_2">
    <g id="ytick_1">
     <g id="line2d_8">
      <defs>
       <path id="m3f5c1ddd8b" d="M 0 0 
L -3.5 0 
" style="stroke: #000000; stroke-width: 0.8"/>
      </defs>
      <g>
       <use xlink:href="#m3f5c1ddd8b" x="56.25" y="628.125766" style="stroke: #000000; stroke-width: 0.8"/>
      </g>
     </g>
     <g id="text_8">
      <!-- −600 -->
      <g transform="translate(21.782812 631.924984) scale(0.1 -0.1)">
       <defs>
        <path id="DejaVuSans-36" d="M 2113 2584 
Q 1688 2584 1439 2293 
Q 1191 2003 1191 1497 
Q 1191 994 1439 701 
Q 1688 409 2113 409 
Q 2538 409 2786 701 
Q 3034 994 3034 1497 
Q 3034 2003 2786 2293 
Q 2538 2584 2113 2584 
z
M 3366 4563 
L 3366 3988 
Q 3128 4100 2886 4159 
Q 2644 4219 2406 4219 
Q 1781 4219 1451 3797 
Q 1122 3375 1075 2522 
Q 1259 2794 1537 2939 
Q 1816 3084 2150 3084 
Q 2853 3084 3261 2657 
Q 3669 2231 3669 1497 
Q 3669 778 3244 343 
Q 2819 -91 2113 -91 
Q 1303 -91 875 529 
Q 447 1150 447 2328 
Q 447 3434 972 4092 
Q 1497 4750 2381 4750 
Q 2619 4750 2861 4703 
Q 3103 4656 3366 4563 
z
" transform="scale(0.015625)"/>
       </defs>
       <use xlink:href="#DejaVuSans-2212"/>
       <use xlink:href="#DejaVuSans-36" x="83.789062"/>
       <use xlink:href="#DejaVuSans-30" x="147.412109"/>
       <use xlink:href="#DejaVuSans-30" x="211.035156"/>
      </g>
     </g>
    </g>
    <g id="ytick_2">
     <g id="line2d_9">
      <g>
       <use xlink:href="#m3f5c1ddd8b" x="56.25" y="541.990627" style="stroke: #000000; stroke-width: 0.8"/>
      </g>
     </g>
     <g id="text_9">
      <!-- −500 -->
      <g transform="translate(21.782812 545.789846) scale(0.1 -0.1)">
       <defs>
        <path id="DejaVuSans-35" d="M 691 4666 
L 3169 4666 
L 3169 4134 
L 1269 4134 
L 1269 2991 
Q 1406 3038 1543 3061 
Q 1681 3084 1819 3084 
Q 2600 3084 3056 2656 
Q 3513 2228 3513 1497 
Q 3513 744 3044 326 
Q 2575 -91 1722 -91 
Q 1428 -91 1123 -41 
Q 819 9 494 109 
L 494 744 
Q 775 591 1075 516 
Q 1375 441 1709 441 
Q 2250 441 2565 725 
Q 2881 1009 2881 1497 
Q 2881 1984 2565 2268 
Q 2250 2553 1709 2553 
Q 1456 2553 1204 2497 
Q 953 2441 691 2322 
L 691 4666 
z
" transform="scale(0.015625)"/>
       </defs>
       <use xlink:href="#DejaVuSans-2212"/>
       <use xlink:href="#DejaVuSans-35" x="83.789062"/>
       <use xlink:href="#DejaVuSans-30" x="147.412109"/>
       <use xlink:href="#DejaVuSans-30" x="211.035156"/>
      </g>
     </g>
    </g>
    <g id="ytick_3">
     <g id="line2d_10">
      <g>
       <use xlink:href="#m3f5c1ddd8b" x="56.25" y="455.855489" style="stroke: #000000; stroke-width: 0.8"/>
      </g>
     </g>
     <g id="text_10">
      <!-- −400 -->
      <g transform="translate(21.782812 459.654707) scale(0.1 -0.1)">
       <use xlink:href="#DejaVuSans-2212"/>
       <use xlink:href="#DejaVuSans-34" x="83.789062"/>
       <use xlink:href="#DejaVuSans-30" x="147.412109"/>
       <use xlink:href="#DejaVuSans-30" x="211.035156"/>
      </g>
     </g>
    </g>
    <g id="ytick_4">
     <g id="line2d_11">
      <g>
       <use xlink:href="#m3f5c1ddd8b" x="56.25" y="369.72035" style="stroke: #000000; stroke-width: 0.8"/>
      </g>
     </g>
     <g id="text_11">
      <!-- −300 -->
      <g transform="translate(21.782812 373.519569) scale(0.1 -0.1)">
       <use xlink:href="#DejaVuSans-2212"/>
       <use xlink:href="#DejaVuSans-33" x="83.789062"/>
       <use xlink:href="#DejaVuSans-30" x="147.412109"/>
       <use xlink:href="#DejaVuSans-30" x="211.035156"/>
      </g>
     </g>
    </g>
    <g id="ytick_5">
     <g id="line2d_12">
      <g>
       <use xlink:href="#m3f5c1ddd8b" x="56.25" y="283.585212" style="stroke: #000000; stroke-width: 0.8"/>
      </g>
     </g>
     <g id="text_12">
      <!-- −200 -->
      <g transform="translate(21.782812 287.384431) scale(0.1 -0.1)">
       <use xlink:href="#DejaVuSans-2212"/>
       <use xlink:href="#DejaVuSans-32" x="83.789062"/>
       <use xlink:href="#DejaVuSans-30" x="147.412109"/>
       <use xlink:href="#DejaVuSans-30" x="211.035156"/>
      </g>
     </g>
    </g>
    <g id="ytick_6">
     <g id="line2d_13">
      <g>
       <use xlink:href="#m3f5c1ddd8b" x="56.25" y="197.450073" style="stroke: #000000; stroke-width: 0.8"/>
      </g>
     </g>
     <g id="text_13">
      <!-- −100 -->
      <g transform="translate(21.782812 201.249292) scale(0.1 -0.1)">
       <use xlink:href="#DejaVuSans-2212"/>
       <use xlink:href="#DejaVuSans-31" x="83.789062"/>
       <use xlink:href="#DejaVuSans-30" x="147.412109"/>
       <use xlink:href="#DejaVuSans-30" x="211.035156"/>
      </g>
     </g>
    </g>
    <g id="ytick_7">
     <g id="line2d_14">
      <g>
       <use xlink:href="#m3f5c1ddd8b" x="56.25" y="111.314935" style="stroke: #000000; stroke-width: 0.8"/>
      </g>
     </g>
     <g id="text_14">
      <!-- 0 -->
      <g transform="translate(42.8875 115.114154) scale(0.1 -0.1)">
       <use xlink:href="#DejaVuSans-30"/>
      </g>
     </g>
    </g>
   </g>
   <g id="line2d_15">
    <path d="M 284.561749 111.314935 
L 294.122915 110.2608 
L 290.264873 111.318747 
L 289.950186 110.670635 
L 293.006818 111.624694 
L 289.013696 112.924731 
L 285.96985 113.558546 
L 277.215642 113.094383 
L 273.384963 113.975053 
L 271.416423 114.823317 
L 269.050062 115.046344 
L 267.212416 116.565594 
L 265.542691 117.743633 
L 261.922592 119.884309 
L 259.511558 121.224375 
L 257.984587 122.405273 
L 254.934515 125.796424 
L 254.547666 127.05357 
L 254.0327 128.312623 
L 254.30067 129.64983 
L 255.50415 130.802135 
L 260.391973 133.080058 
L 262.534811 134.180895 
L 264.284493 135.472353 
L 266.793038 136.690422 
L 269.473994 137.770291 
L 270.760672 138.725303 
L 271.333841 139.624082 
L 272.347258 140.628655 
L 272.472169 141.677071 
L 272.740571 142.68927 
L 270.832989 143.549924 
L 270.508546 144.675542 
L 262.34486 151.402562 
L 257.173025 154.21899 
L 257.179797 155.594321 
L 258.911062 158.277314 
L 259.954948 159.539226 
L 261.891654 160.915511 
L 262.378274 162.230797 
L 261.479204 163.409788 
L 260.864695 164.501095 
L 262.250517 165.446575 
L 261.254098 166.318667 
L 260.175688 168.793883 
L 258.384156 169.970015 
L 258.854261 171.727542 
L 257.658002 174.793683 
L 255.35567 176.009846 
L 257.92285 177.072559 
L 258.824444 178.072367 
L 261.417039 179.251359 
L 263.15279 180.43321 
L 265.505701 181.523563 
L 268.625961 182.593901 
L 272.621819 183.735721 
L 276.397341 185.129162 
L 282.092395 186.523556 
L 287.994969 187.673001 
L 294.711249 188.569874 
L 308.706652 190.279745 
L 313.399295 191.481612 
L 319.261662 192.487138 
L 328.995256 194.898496 
L 332.557879 196.306233 
L 335.638067 197.735892 
L 339.821559 199.206534 
L 346.50562 201.844731 
L 353.956537 204.372367 
L 358.703386 205.587577 
L 361.377029 206.992455 
L 362.624879 208.358255 
L 364.968301 209.694509 
L 369.313585 212.532858 
L 372.362076 213.915815 
L 381.060398 216.67029 
L 383.143598 218.159995 
L 383.944187 219.834601 
L 384.943639 221.450116 
L 386.675527 225.927806 
L 388.628679 227.472791 
L 388.680735 229.089258 
L 388.08362 230.770537 
L 386.751737 232.458487 
L 386.234475 234.183608 
L 385.052977 235.747655 
L 384.371194 237.420355 
L 384.883258 239.114024 
L 386.497272 240.840099 
L 387.932582 244.150235 
L 387.786279 245.654236 
L 387.932706 247.100097 
L 386.705706 248.530709 
L 386.130513 250.022319 
L 387.012 251.441494 
L 387.039622 252.816826 
L 386.564732 254.218844 
L 387.257022 255.714267 
L 386.687661 257.11152 
L 387.69625 259.964165 
L 386.960866 261.321388 
L 387.004878 262.865419 
L 387.827608 264.460918 
L 389.147727 266.041168 
L 388.828293 267.482264 
L 388.711826 268.911922 
L 388.888895 270.375893 
L 388.313206 271.798879 
L 387.387815 273.139899 
L 386.118412 275.963952 
L 384.599468 277.261128 
L 382.380693 278.71938 
L 381.317231 280.087087 
L 380.937424 282.89589 
L 380.113071 284.392266 
L 379.613573 285.792378 
L 379.175902 287.385018 
L 378.075539 288.891878 
L 376.830305 290.404457 
L 376.639123 291.822678 
L 375.595886 293.208494 
L 375.522588 294.669605 
L 376.683602 296.165981 
L 376.929525 297.713824 
L 377.607753 299.164451 
L 378.10625 300.619844 
L 378.000295 302.246795 
L 378.840096 305.260516 
L 378.978907 306.592958 
L 377.616184 309.354105 
L 377.015325 310.859059 
L 376.571753 312.436449 
L 375.342071 313.981433 
L 374.943851 315.429201 
L 374.077871 316.991341 
L 372.361344 318.530607 
L 372.828357 320.0937 
L 372.553799 321.664419 
L 373.527255 323.203684 
L 373.826208 324.866854 
L 372.52944 329.332154 
L 371.88656 330.725595 
L 371.874684 332.201956 
L 374.622793 335.014571 
L 374.960472 336.571946 
L 376.692605 339.303547 
L 376.468849 340.778954 
L 375.99685 342.264846 
L 374.677818 343.815549 
L 372.777923 345.358627 
L 370.889002 348.500064 
L 370.36915 349.9688 
L 370.078079 351.43563 
L 370.140709 352.834789 
L 370.332381 354.259682 
L 369.777338 355.39769 
L 369.509489 356.551901 
L 368.675837 357.924373 
L 368.333397 359.286361 
L 367.775255 360.557805 
L 364.037582 363.860316 
L 360.987115 365.676935 
L 359.619325 367.510711 
L 356.134746 369.172927 
L 353.282094 370.945704 
L 353.02444 371.705329 
L 351.41783 372.560265 
L 351.026344 373.089239 
L 351.314509 374.072844 
L 350.710747 375.275663 
L 351.137366 376.387938 
L 351.11086 377.61935 
L 350.305383 378.928918 
L 349.130118 380.423387 
L 348.939612 382.020793 
L 350.719208 383.215987 
L 347.738199 385.710265 
L 347.398567 387.548806 
L 344.947287 389.248194 
L 344.890679 390.639728 
L 346.313556 391.337401 
L 346.931731 391.973123 
L 346.030273 392.722264 
L 346.784855 394.456916 
L 349.194895 398.069187 
L 349.394769 399.611312 
L 349.757152 401.105782 
L 352.007657 402.402959 
L 354.301819 403.494265 
L 355.886474 404.467386 
L 357.916608 405.404289 
L 357.530826 406.16582 
L 356.790523 407.164675 
L 357.457063 408.214045 
L 356.817839 409.149994 
L 353.541518 410.309924 
L 352.177223 411.379309 
L 349.321568 412.390554 
L 348.891628 412.69936 
L 350.207352 412.525895 
L 353.676852 413.36844 
L 355.08238 412.930012 
L 357.657861 412.90809 
L 360.089645 413.117774 
L 362.094541 413.699168 
L 364.095827 414.585557 
L 364.245839 414.874348 
L 364.311381 415.243199 
L 363.752233 415.503397 
L 363.948114 416.343084 
L 363.85632 417.40389 
L 363.48462 418.538086 
L 362.727543 419.49691 
L 360.231275 421.765302 
L 360.392841 423.066291 
L 360.440468 424.371093 
L 362.946665 426.862512 
L 364.952556 427.8871 
L 364.95406 429.010812 
L 364.602788 430.251756 
L 364.64585 431.484121 
L 363.590739 433.057699 
L 361.655313 434.858116 
L 359.682345 435.876033 
L 358.579825 437.129367 
L 358.955546 438.16158 
L 358.307672 439.021281 
L 357.114975 439.838093 
L 357.194469 440.622499 
L 358.024219 441.519372 
L 358.694523 442.548726 
L 358.791454 443.486582 
L 359.024268 444.252879 
L 358.621301 444.775181 
L 358.983833 446.838655 
L 361.894354 449.078453 
L 364.620924 450.204071 
L 364.810259 450.652984 
L 364.726311 452.003535 
L 364.965008 452.479135 
L 368.581146 454.878102 
L 369.333453 456.008485 
L 369.007685 458.10913 
L 370.024968 459.4654 
L 372.470751 460.986556 
L 373.043811 462.190329 
L 372.24548 463.632378 
L 372.890443 464.108931 
L 373.036052 464.916211 
L 373.587528 466.115218 
L 374.389457 467.186509 
L 373.17044 468.471296 
L 372.464906 469.033628 
L 372.426375 469.512087 
L 372.659189 470.846435 
L 372.615683 471.905336 
L 373.380071 473.046203 
L 372.289259 474.198508 
L 371.459114 475.702509 
L 371.68975 476.913906 
L 373.140019 479.422481 
L 373.359775 481.177148 
L 373.41771 481.716606 
L 372.748247 482.571542 
L 372.382734 483.438868 
L 370.919491 484.082215 
L 369.013478 484.757014 
L 368.012429 486.430667 
L 368.253604 487.8832 
L 369.901541 489.472981 
L 371.146624 490.952201 
L 371.761744 492.355172 
L 369.423976 495.075336 
L 369.971627 497.320853 
L 369.808386 498.849635 
L 368.554068 501.332475 
L 368.730504 502.508608 
L 369.59621 505.183023 
L 370.044847 506.259079 
L 369.951413 507.375166 
L 370.270969 508.359724 
L 370.59378 510.369824 
L 369.55515 511.479239 
L 367.724284 512.736386 
L 368.675738 514.027844 
L 368.386721 515.158227 
L 369.063053 516.159941 
L 368.859459 517.871719 
L 367.516786 519.667371 
L 367.613953 521.349602 
L 367.300853 523.180518 
L 366.331636 524.857984 
L 363.609771 526.449671 
L 356.870707 527.59721 
L 353.358455 528.845779 
L 350.549232 529.625419 
L 348.635026 530.554697 
L 346.329228 531.269527 
L 342.035314 532.994648 
L 339.272956 533.938223 
L 333.53421 538.411148 
L 332.478359 539.521516 
L 331.696792 540.763413 
L 331.475469 542.079652 
L 332.219951 543.554107 
L 332.160615 544.972328 
L 331.843357 546.383878 
L 330.026942 547.622915 
L 329.132901 548.79047 
L 329.625033 549.943727 
L 329.163864 551.192296 
L 329.449962 552.578112 
L 329.620323 554.000146 
L 330.833231 555.429804 
L 330.654642 556.796558 
L 330.902299 558.268153 
L 331.69781 559.779779 
L 331.767403 561.288545 
L 331.521101 562.753469 
L 331.413772 564.175502 
L 331.934986 565.533678 
L 333.011126 566.888994 
L 333.024451 568.152813 
L 332.032533 569.469052 
L 331.607688 570.924444 
L 330.296566 572.219715 
L 329.326685 573.543579 
L 329.478511 575.023752 
L 328.806759 576.476285 
L 328.814289 577.922146 
L 328.485668 579.262213 
L 328.241223 580.82626 
L 327.485523 582.209216 
L 327.509768 583.585501 
L 327.158513 584.936052 
L 327.449433 587.794416 
L 328.296436 590.547938 
L 327.697607 592.066236 
L 326.901096 593.629329 
L 326.472285 595.016098 
L 327.279842 597.958335 
L 325.225635 599.361307 
L 321.213805 600.677546 
L 315.557045 601.887037 
L 310.715431 603.15848 
L 303.767264 604.104914 
L 295.783733 604.34605 
L 279.841884 604.244068 
L 231.655212 603.369117 
L 223.322489 603.378648 
L 198.686178 603.937168 
L 190.229407 604.280286 
L 182.082684 604.433736 
L 166.575074 605.055161 
L 150.804629 605.507886 
L 120.61002 607.896369 
L 112.403956 608.00407 
L 95.434939 607.903994 
L 72.102273 608.2128 
L 72.102273 608.2128 
" clip-path="url(#peb097b3426)" style="fill: none; stroke: #1f77b4; stroke-width: 1.5; stroke-linecap: square"/>
   </g>
   <g id="patch_3">
    <path d="M 56.25 633.1104 
L 56.25 85.3632 
" style="fill: none; stroke: #000000; stroke-width: 0.8; stroke-linejoin: miter; stroke-linecap: square"/>
   </g>
   <g id="patch_4">
    <path d="M 405 633.1104 
L 405 85.3632 
" style="fill: none; stroke: #000000; stroke-width: 0.8; stroke-linejoin: miter; stroke-linecap: square"/>
   </g>
   <g id="patch_5">
    <path d="M 56.25 633.1104 
L 405 633.1104 
" style="fill: none; stroke: #000000; stroke-width: 0.8; stroke-linejoin: miter; stroke-linecap: square"/>
   </g>
   <g id="patch_6">
    <path d="M 56.25 85.3632 
L 405 85.3632 
" style="fill: none; stroke: #000000; stroke-width: 0.8; stroke-linejoin: miter; stroke-linecap: square"/>
   </g>
  </g>
 </g>
 <defs>
  <clipPath id="peb097b3426">
   <rect x="56.25" y="85.3632" width="348.75" height="547.7472"/>
  </clipPath>
 </defs>
</svg>
