<?xml version="1.0" encoding="utf-8" standalone="no"?>
<!DOCTYPE svg PUBLIC "-//W3C//DTD SVG 1.1//EN"
  "http://www.w3.org/Graphics/SVG/1.1/DTD/svg11.dtd">
<svg xmlns:xlink="http://www.w3.org/1999/xlink" width="450pt" height="711.36pt" viewBox="0 0 450 711.36" xmlns="http://www.w3.org/2000/svg" version="1.1">
 <metadata>
  <rdf:RDF xmlns:dc="http://purl.org/dc/elements/1.1/" xmlns:cc="http://creativecommons.org/ns#" xmlns:rdf="http://www.w3.org/1999/02/22-rdf-syntax-ns#">
   <cc:Work>
    <dc:type rdf:resource="http://purl.org/dc/dcmitype/StillImage"/>
    <dc:date>2023-11-10T23:25:51.898333</dc:date>
    <dc:format>image/svg+xml</dc:format>
    <dc:creator>
     <cc:Agent>
      <dc:title>Matplotlib v3.8.1, https://matplotlib.org/</dc:title>
     </cc:Agent>
    </dc:creator>
   </cc:Work>
  </rdf:RDF>
 </metadata>
 <defs>
  <style type="text/css">*{stroke-linejoin: round; stroke-linecap: butt}</style>
 </defs>
 <g id="figure_1">
  <g id="patch_1">
   <path d="M 0 711.36 
L 450 711.36 
L 450 0 
L 0 0 
z
" style="fill: #ffffff"/>
  </g>
  <g id="axes_1">
   <g id="patch_2">
    <path d="M 56.25 633.1104 
L 405 633.1104 
L 405 85.3632 
L 56.25 85.3632 
z
" style="fill: #ffffff"/>
   </g>
   <g id="PathCollection_1">
    <defs>
     <path id="m80f54e15c0" d="M 0 3 
C 0.795609 3 1.55874 2.683901 2.12132 2.12132 
C 2.683901 1.55874 3 0.795609 3 0 
C 3 -0.795609 2.683901 -1.55874 2.12132 -2.12132 
C 1.55874 -2.683901 0.795609 -3 0 -3 
C -0.795609 -3 -1.55874 -2.683901 -2.12132 -2.12132 
C -2.683901 -1.55874 -3 -0.795609 -3 0 
C -3 0.795609 -2.683901 1.55874 -2.12132 2.12132 
C -1.55874 2.683901 -0.795609 3 0 3 
z
" style="stroke: #ff0000"/>
    </defs>
    <g clip-path="url(#pf0523b97e1)">
     <use xlink:href="#m80f54e15c0" x="385.568838" y="111.061073" style="fill: #ff0000; stroke: #ff0000"/>
     <use xlink:href="#m80f54e15c0" x="357.00739" y="151.414174" style="fill: #ff0000; stroke: #ff0000"/>
     <use xlink:href="#m80f54e15c0" x="307.456168" y="181.390698" style="fill: #ff0000; stroke: #ff0000"/>
     <use xlink:href="#m80f54e15c0" x="287.629327" y="193.851132" style="fill: #ff0000; stroke: #ff0000"/>
     <use xlink:href="#m80f54e15c0" x="291.576318" y="200.552295" style="fill: #ff0000; stroke: #ff0000"/>
     <use xlink:href="#m80f54e15c0" x="222.850768" y="253.084834" style="fill: #ff0000; stroke: #ff0000"/>
     <use xlink:href="#m80f54e15c0" x="167.524604" y="303.621186" style="fill: #ff0000; stroke: #ff0000"/>
     <use xlink:href="#m80f54e15c0" x="156.347445" y="346.880897" style="fill: #ff0000; stroke: #ff0000"/>
     <use xlink:href="#m80f54e15c0" x="130.953857" y="393.615951" style="fill: #ff0000; stroke: #ff0000"/>
     <use xlink:href="#m80f54e15c0" x="94.610562" y="441.84365" style="fill: #ff0000; stroke: #ff0000"/>
     <use xlink:href="#m80f54e15c0" x="78.348895" y="499.353169" style="fill: #ff0000; stroke: #ff0000"/>
     <use xlink:href="#m80f54e15c0" x="101.205135" y="567.362901" style="fill: #ff0000; stroke: #ff0000"/>
    </g>
   </g>
   <g id="matplotlib.axis_1">
    <g id="xtick_1">
     <g id="line2d_1">
      <defs>
       <path id="mbd58fad91c" d="M 0 0 
L 0 3.5 
" style="stroke: #000000; stroke-width: 0.8"/>
      </defs>
      <g>
       <use xlink:href="#mbd58fad91c" x="100.890479" y="633.1104" style="stroke: #000000; stroke-width: 0.8"/>
      </g>
     </g>
     <g id="text_1">
      <!-- −80 -->
      <g transform="translate(90.338135 647.708838) scale(0.1 -0.1)">
       <defs>
        <path id="DejaVuSans-2212" d="M 678 2272 
L 4684 2272 
L 4684 1741 
L 678 1741 
L 678 2272 
z
" transform="scale(0.015625)"/>
        <path id="DejaVuSans-38" d="M 2034 2216 
Q 1584 2216 1326 1975 
Q 1069 1734 1069 1313 
Q 1069 891 1326 650 
Q 1584 409 2034 409 
Q 2484 409 2743 651 
Q 3003 894 3003 1313 
Q 3003 1734 2745 1975 
Q 2488 2216 2034 2216 
z
M 1403 2484 
Q 997 2584 770 2862 
Q 544 3141 544 3541 
Q 544 4100 942 4425 
Q 1341 4750 2034 4750 
Q 2731 4750 3128 4425 
Q 3525 4100 3525 3541 
Q 3525 3141 3298 2862 
Q 3072 2584 2669 2484 
Q 3125 2378 3379 2068 
Q 3634 1759 3634 1313 
Q 3634 634 3220 271 
Q 2806 -91 2034 -91 
Q 1263 -91 848 271 
Q 434 634 434 1313 
Q 434 1759 690 2068 
Q 947 2378 1403 2484 
z
M 1172 3481 
Q 1172 3119 1398 2916 
Q 1625 2713 2034 2713 
Q 2441 2713 2670 2916 
Q 2900 3119 2900 3481 
Q 2900 3844 2670 4047 
Q 2441 4250 2034 4250 
Q 1625 4250 1398 4047 
Q 1172 3844 1172 3481 
z
" transform="scale(0.015625)"/>
        <path id="DejaVuSans-30" d="M 2034 4250 
Q 1547 4250 1301 3770 
Q 1056 3291 1056 2328 
Q 1056 1369 1301 889 
Q 1547 409 2034 409 
Q 2525 409 2770 889 
Q 3016 1369 3016 2328 
Q 3016 3291 2770 3770 
Q 2525 4250 2034 4250 
z
M 2034 4750 
Q 2819 4750 3233 4129 
Q 3647 3509 3647 2328 
Q 3647 1150 3233 529 
Q 2819 -91 2034 -91 
Q 1250 -91 836 529 
Q 422 1150 422 2328 
Q 422 3509 836 4129 
Q 1250 4750 2034 4750 
z
" transform="scale(0.015625)"/>
       </defs>
       <use xlink:href="#DejaVuSans-2212"/>
       <use xlink:href="#DejaVuSans-38" x="83.789062"/>
       <use xlink:href="#DejaVuSans-30" x="147.412109"/>
      </g>
     </g>
    </g>
    <g id="xtick_2">
     <g id="line2d_2">
      <g>
       <use xlink:href="#mbd58fad91c" x="172.060069" y="633.1104" style="stroke: #000000; stroke-width: 0.8"/>
      </g>
     </g>
     <g id="text_2">
      <!-- −60 -->
      <g transform="translate(161.507725 647.708838) scale(0.1 -0.1)">
       <defs>
        <path id="DejaVuSans-36" d="M 2113 2584 
Q 1688 2584 1439 2293 
Q 1191 2003 1191 1497 
Q 1191 994 1439 701 
Q 1688 409 2113 409 
Q 2538 409 2786 701 
Q 3034 994 3034 1497 
Q 3034 2003 2786 2293 
Q 2538 2584 2113 2584 
z
M 3366 4563 
L 3366 3988 
Q 3128 4100 2886 4159 
Q 2644 4219 2406 4219 
Q 1781 4219 1451 3797 
Q 1122 3375 1075 2522 
Q 1259 2794 1537 2939 
Q 1816 3084 2150 3084 
Q 2853 3084 3261 2657 
Q 3669 2231 3669 1497 
Q 3669 778 3244 343 
Q 2819 -91 2113 -91 
Q 1303 -91 875 529 
Q 447 1150 447 2328 
Q 447 3434 972 4092 
Q 1497 4750 2381 4750 
Q 2619 4750 2861 4703 
Q 3103 4656 3366 4563 
z
" transform="scale(0.015625)"/>
       </defs>
       <use xlink:href="#DejaVuSans-2212"/>
       <use xlink:href="#DejaVuSans-36" x="83.789062"/>
       <use xlink:href="#DejaVuSans-30" x="147.412109"/>
      </g>
     </g>
    </g>
    <g id="xtick_3">
     <g id="line2d_3">
      <g>
       <use xlink:href="#mbd58fad91c" x="243.229658" y="633.1104" style="stroke: #000000; stroke-width: 0.8"/>
      </g>
     </g>
     <g id="text_3">
      <!-- −40 -->
      <g transform="translate(232.677315 647.708838) scale(0.1 -0.1)">
       <defs>
        <path id="DejaVuSans-34" d="M 2419 4116 
L 825 1625 
L 2419 1625 
L 2419 4116 
z
M 2253 4666 
L 3047 4666 
L 3047 1625 
L 3713 1625 
L 3713 1100 
L 3047 1100 
L 3047 0 
L 2419 0 
L 2419 1100 
L 313 1100 
L 313 1709 
L 2253 4666 
z
" transform="scale(0.015625)"/>
       </defs>
       <use xlink:href="#DejaVuSans-2212"/>
       <use xlink:href="#DejaVuSans-34" x="83.789062"/>
       <use xlink:href="#DejaVuSans-30" x="147.412109"/>
      </g>
     </g>
    </g>
    <g id="xtick_4">
     <g id="line2d_4">
      <g>
       <use xlink:href="#mbd58fad91c" x="314.399248" y="633.1104" style="stroke: #000000; stroke-width: 0.8"/>
      </g>
     </g>
     <g id="text_4">
      <!-- −20 -->
      <g transform="translate(303.846904 647.708838) scale(0.1 -0.1)">
       <defs>
        <path id="DejaVuSans-32" d="M 1228 531 
L 3431 531 
L 3431 0 
L 469 0 
L 469 531 
Q 828 903 1448 1529 
Q 2069 2156 2228 2338 
Q 2531 2678 2651 2914 
Q 2772 3150 2772 3378 
Q 2772 3750 2511 3984 
Q 2250 4219 1831 4219 
Q 1534 4219 1204 4116 
Q 875 4013 500 3803 
L 500 4441 
Q 881 4594 1212 4672 
Q 1544 4750 1819 4750 
Q 2544 4750 2975 4387 
Q 3406 4025 3406 3419 
Q 3406 3131 3298 2873 
Q 3191 2616 2906 2266 
Q 2828 2175 2409 1742 
Q 1991 1309 1228 531 
z
" transform="scale(0.015625)"/>
       </defs>
       <use xlink:href="#DejaVuSans-2212"/>
       <use xlink:href="#DejaVuSans-32" x="83.789062"/>
       <use xlink:href="#DejaVuSans-30" x="147.412109"/>
      </g>
     </g>
    </g>
    <g id="xtick_5">
     <g id="line2d_5">
      <g>
       <use xlink:href="#mbd58fad91c" x="385.568838" y="633.1104" style="stroke: #000000; stroke-width: 0.8"/>
      </g>
     </g>
     <g id="text_5">
      <!-- 0 -->
      <g transform="translate(382.387588 647.708838) scale(0.1 -0.1)">
       <use xlink:href="#DejaVuSans-30"/>
      </g>
     </g>
    </g>
   </g>
   <g id="matplotlib.axis_2">
    <g id="ytick_1">
     <g id="line2d_6">
      <defs>
       <path id="mbf2de432e5" d="M 0 0 
L -3.5 0 
" style="stroke: #000000; stroke-width: 0.8"/>
      </defs>
      <g>
       <use xlink:href="#mbf2de432e5" x="56.25" y="618.948594" style="stroke: #000000; stroke-width: 0.8"/>
      </g>
     </g>
     <g id="text_6">
      <!-- −250 -->
      <g transform="translate(21.782812 622.747813) scale(0.1 -0.1)">
       <defs>
        <path id="DejaVuSans-35" d="M 691 4666 
L 3169 4666 
L 3169 4134 
L 1269 4134 
L 1269 2991 
Q 1406 3038 1543 3061 
Q 1681 3084 1819 3084 
Q 2600 3084 3056 2656 
Q 3513 2228 3513 1497 
Q 3513 744 3044 326 
Q 2575 -91 1722 -91 
Q 1428 -91 1123 -41 
Q 819 9 494 109 
L 494 744 
Q 775 591 1075 516 
Q 1375 441 1709 441 
Q 2250 441 2565 725 
Q 2881 1009 2881 1497 
Q 2881 1984 2565 2268 
Q 2250 2553 1709 2553 
Q 1456 2553 1204 2497 
Q 953 2441 691 2322 
L 691 4666 
z
" transform="scale(0.015625)"/>
       </defs>
       <use xlink:href="#DejaVuSans-2212"/>
       <use xlink:href="#DejaVuSans-32" x="83.789062"/>
       <use xlink:href="#DejaVuSans-35" x="147.412109"/>
       <use xlink:href="#DejaVuSans-30" x="211.035156"/>
      </g>
     </g>
    </g>
    <g id="ytick_2">
     <g id="line2d_7">
      <g>
       <use xlink:href="#mbf2de432e5" x="56.25" y="517.37109" style="stroke: #000000; stroke-width: 0.8"/>
      </g>
     </g>
     <g id="text_7">
      <!-- −200 -->
      <g transform="translate(21.782812 521.170308) scale(0.1 -0.1)">
       <use xlink:href="#DejaVuSans-2212"/>
       <use xlink:href="#DejaVuSans-32" x="83.789062"/>
       <use xlink:href="#DejaVuSans-30" x="147.412109"/>
       <use xlink:href="#DejaVuSans-30" x="211.035156"/>
      </g>
     </g>
    </g>
    <g id="ytick_3">
     <g id="line2d_8">
      <g>
       <use xlink:href="#mbf2de432e5" x="56.25" y="415.793586" style="stroke: #000000; stroke-width: 0.8"/>
      </g>
     </g>
     <g id="text_8">
      <!-- −150 -->
      <g transform="translate(21.782812 419.592804) scale(0.1 -0.1)">
       <defs>
        <path id="DejaVuSans-31" d="M 794 531 
L 1825 531 
L 1825 4091 
L 703 3866 
L 703 4441 
L 1819 4666 
L 2450 4666 
L 2450 531 
L 3481 531 
L 3481 0 
L 794 0 
L 794 531 
z
" transform="scale(0.015625)"/>
       </defs>
       <use xlink:href="#DejaVuSans-2212"/>
       <use xlink:href="#DejaVuSans-31" x="83.789062"/>
       <use xlink:href="#DejaVuSans-35" x="147.412109"/>
       <use xlink:href="#DejaVuSans-30" x="211.035156"/>
      </g>
     </g>
    </g>
    <g id="ytick_4">
     <g id="line2d_9">
      <g>
       <use xlink:href="#mbf2de432e5" x="56.25" y="314.216081" style="stroke: #000000; stroke-width: 0.8"/>
      </g>
     </g>
     <g id="text_9">
      <!-- −100 -->
      <g transform="translate(21.782812 318.0153) scale(0.1 -0.1)">
       <use xlink:href="#DejaVuSans-2212"/>
       <use xlink:href="#DejaVuSans-31" x="83.789062"/>
       <use xlink:href="#DejaVuSans-30" x="147.412109"/>
       <use xlink:href="#DejaVuSans-30" x="211.035156"/>
      </g>
     </g>
    </g>
    <g id="ytick_5">
     <g id="line2d_10">
      <g>
       <use xlink:href="#mbf2de432e5" x="56.25" y="212.638577" style="stroke: #000000; stroke-width: 0.8"/>
      </g>
     </g>
     <g id="text_10">
      <!-- −50 -->
      <g transform="translate(28.145312 216.437796) scale(0.1 -0.1)">
       <use xlink:href="#DejaVuSans-2212"/>
       <use xlink:href="#DejaVuSans-35" x="83.789062"/>
       <use xlink:href="#DejaVuSans-30" x="147.412109"/>
      </g>
     </g>
    </g>
    <g id="ytick_6">
     <g id="line2d_11">
      <g>
       <use xlink:href="#mbf2de432e5" x="56.25" y="111.061073" style="stroke: #000000; stroke-width: 0.8"/>
      </g>
     </g>
     <g id="text_11">
      <!-- 0 -->
      <g transform="translate(42.8875 114.860292) scale(0.1 -0.1)">
       <use xlink:href="#DejaVuSans-30"/>
      </g>
     </g>
    </g>
   </g>
   <g id="line2d_12">
    <path d="M 385.568838 111.061073 
L 389.147727 110.2608 
L 383.05006 112.014208 
L 382.178773 111.946769 
L 379.475995 112.960598 
L 377.890749 114.592616 
L 375.61062 116.458421 
L 372.037457 121.718644 
L 370.913124 122.705497 
L 369.736506 124.760131 
L 369.311877 127.295828 
L 370.224506 129.199849 
L 371.125626 132.360479 
L 368.869418 134.594949 
L 364.859357 135.705441 
L 361.752904 137.724107 
L 359.849388 140.354219 
L 359.652215 142.76403 
L 360.614059 147.887127 
L 357.00739 151.414174 
L 354.037441 154.53434 
L 349.360556 155.357093 
L 343.397033 156.836249 
L 339.66251 157.130732 
L 333.211321 157.449942 
L 329.97943 157.766904 
L 329.47961 159.999127 
L 327.063655 162.669701 
L 326.213636 162.867522 
L 324.235252 163.512686 
L 318.740251 166.286666 
L 311.771704 168.390755 
L 307.243159 171.110785 
L 305.134328 173.0755 
L 302.698316 176.067533 
L 302.747718 178.830274 
L 304.257465 179.80364 
L 305.851709 180.138586 
L 307.456168 181.390698 
L 308.989545 183.852213 
L 304.552922 191.297451 
L 302.525084 194.293979 
L 298.478067 193.143025 
L 299.47948 193.163256 
L 296.13139 196.512714 
L 292.515634 197.099431 
L 290.727188 197.187102 
L 289.974774 199.050659 
L 287.461582 200.983903 
L 288.424297 201.72573 
L 293.317775 202.148346 
L 296.619763 203.569056 
L 298.71888 203.049777 
L 296.539719 204.295146 
L 291.138398 199.450796 
L 288.364166 196.040643 
L 287.629327 193.851132 
L 286.185313 192.637234 
L 283.290834 192.691185 
L 282.936617 193.237439 
L 313.780287 183.377894 
L 313.350342 184.479393 
L 314.676361 183.728575 
L 315.706301 183.440836 
L 314.591137 182.613588 
L 313.392667 183.573466 
L 313.506652 183.771286 
L 312.941587 185.281914 
L 313.477111 185.747242 
L 312.598648 186.203577 
L 311.343133 186.347447 
L 311.095688 186.07994 
L 311.117158 186.297991 
L 297.828637 193.248679 
L 291.576318 200.552295 
L 280.281583 206.5476 
L 272.644269 211.088476 
L 270.902821 213.482552 
L 268.964409 215.784461 
L 266.122355 219.83753 
L 264.231254 222.098976 
L 261.046802 224.322207 
L 258.338961 225.237126 
L 254.828694 226.21274 
L 251.923447 227.896461 
L 249.693145 230.488357 
L 246.992075 232.866697 
L 240.758902 241.008802 
L 236.750315 244.962961 
L 232.881533 248.395593 
L 222.850768 253.084834 
L 220.240216 256.375845 
L 216.604055 259.835453 
L 212.354112 262.261 
L 207.929706 264.423536 
L 204.316199 265.464341 
L 201.474748 267.330146 
L 198.73156 268.726129 
L 195.563521 271.273065 
L 192.104887 273.777291 
L 188.696695 276.814283 
L 184.663079 278.587922 
L 181.562611 281.59569 
L 178.202327 284.655162 
L 175.127237 286.525463 
L 172.478621 288.811637 
L 171.065133 291.473219 
L 169.559942 294.836165 
L 167.879581 300.224521 
L 167.524604 303.621186 
L 166.293576 311.205798 
L 165.242858 315.382504 
L 164.212201 317.549536 
L 162.871495 320.058258 
L 162.361799 321.43176 
L 161.706591 322.805263 
L 161.273198 325.118412 
L 161.163706 327.004449 
L 159.896345 331.059766 
L 159.953173 334.481159 
L 159.120761 336.816787 
L 157.779604 338.907389 
L 156.363955 340.708003 
L 155.88801 342.029803 
L 156.88001 344.525037 
L 156.347445 346.880897 
L 155.092833 351.340846 
L 154.417177 352.721093 
L 153.870725 354.240713 
L 153.403129 356.187444 
L 152.396619 358.523073 
L 151.144055 360.874438 
L 149.573425 363.153867 
L 148.286857 365.296172 
L 146.491011 367.899308 
L 145.057478 370.934051 
L 144.212846 374.103673 
L 142.820658 377.13392 
L 141.683264 380.013555 
L 140.533285 382.594211 
L 138.593747 385.233314 
L 136.423092 387.721804 
L 135.08381 388.672691 
L 130.953857 393.615951 
L 128.443487 396.117929 
L 125.797399 398.556964 
L 120.413713 403.014665 
L 117.861769 405.312079 
L 114.922111 407.649955 
L 111.806246 409.843963 
L 109.123322 412.069441 
L 106.672028 414.353367 
L 102.614695 419.29438 
L 101.449909 421.890771 
L 100.537222 424.795134 
L 97.477878 430.098067 
L 97.236838 432.361761 
L 97.137947 434.456859 
L 96.080837 437.07573 
L 95.493477 439.683362 
L 94.610562 441.84365 
L 93.124152 443.837589 
L 90.982407 446.128258 
L 87.280875 450.963617 
L 85.857558 453.279014 
L 84.469209 455.924861 
L 83.321261 458.54598 
L 82.338816 461.151364 
L 80.9479 464.51431 
L 79.003733 470.696195 
L 77.278533 473.872561 
L 75.40628 476.916296 
L 74.612175 480.416367 
L 73.552281 483.134149 
L 72.102273 485.845187 
L 72.313291 489.284563 
L 76.555069 495.702484 
L 78.348895 499.353169 
L 80.304149 502.754329 
L 84.798363 509.026133 
L 86.987309 512.526204 
L 88.323385 516.015036 
L 89.358145 519.710679 
L 90.274772 523.485001 
L 93.444691 534.124588 
L 94.614709 537.208787 
L 95.837361 540.050207 
L 98.725461 549.489384 
L 100.267687 556.372632 
L 100.217802 559.944638 
L 100.559235 563.444709 
L 102.477504 574.765428 
L 104.346124 577.739476 
L 107.824462 580.942817 
L 110.662113 583.298678 
L 113.961391 585.43199 
L 120.973602 590.424706 
L 124.152959 593.317828 
L 126.988814 596.763948 
L 130.632529 600.767562 
L 138.153877 608.2128 
L 138.153877 608.2128 
" clip-path="url(#pf0523b97e1)" style="fill: none; stroke: #1f77b4; stroke-width: 1.5; stroke-linecap: square"/>
   </g>
   <g id="patch_3">
    <path d="M 56.25 633.1104 
L 56.25 85.3632 
" style="fill: none; stroke: #000000; stroke-width: 0.8; stroke-linejoin: miter; stroke-linecap: square"/>
   </g>
   <g id="patch_4">
    <path d="M 405 633.1104 
L 405 85.3632 
" style="fill: none; stroke: #000000; stroke-width: 0.8; stroke-linejoin: miter; stroke-linecap: square"/>
   </g>
   <g id="patch_5">
    <path d="M 56.25 633.1104 
L 405 633.1104 
" style="fill: none; stroke: #000000; stroke-width: 0.8; stroke-linejoin: miter; stroke-linecap: square"/>
   </g>
   <g id="patch_6">
    <path d="M 56.25 85.3632 
L 405 85.3632 
" style="fill: none; stroke: #000000; stroke-width: 0.8; stroke-linejoin: miter; stroke-linecap: square"/>
   </g>
  </g>
 </g>
 <defs>
  <clipPath id="pf0523b97e1">
   <rect x="56.25" y="85.3632" width="348.75" height="547.7472"/>
  </clipPath>
 </defs>
</svg>
