<?xml version="1.0" encoding="utf-8" standalone="no"?>
<!DOCTYPE svg PUBLIC "-//W3C//DTD SVG 1.1//EN"
  "http://www.w3.org/Graphics/SVG/1.1/DTD/svg11.dtd">
<svg xmlns:xlink="http://www.w3.org/1999/xlink" width="450pt" height="711.36pt" viewBox="0 0 450 711.36" xmlns="http://www.w3.org/2000/svg" version="1.1">
 <metadata>
  <rdf:RDF xmlns:dc="http://purl.org/dc/elements/1.1/" xmlns:cc="http://creativecommons.org/ns#" xmlns:rdf="http://www.w3.org/1999/02/22-rdf-syntax-ns#">
   <cc:Work>
    <dc:type rdf:resource="http://purl.org/dc/dcmitype/StillImage"/>
    <dc:date>2023-11-10T23:26:56.823671</dc:date>
    <dc:format>image/svg+xml</dc:format>
    <dc:creator>
     <cc:Agent>
      <dc:title>Matplotlib v3.8.1, https://matplotlib.org/</dc:title>
     </cc:Agent>
    </dc:creator>
   </cc:Work>
  </rdf:RDF>
 </metadata>
 <defs>
  <style type="text/css">*{stroke-linejoin: round; stroke-linecap: butt}</style>
 </defs>
 <g id="figure_1">
  <g id="patch_1">
   <path d="M 0 711.36 
L 450 711.36 
L 450 0 
L 0 0 
z
" style="fill: #ffffff"/>
  </g>
  <g id="axes_1">
   <g id="patch_2">
    <path d="M 56.25 633.1104 
L 405 633.1104 
L 405 85.3632 
L 56.25 85.3632 
z
" style="fill: #ffffff"/>
   </g>
   <g id="PathCollection_1">
    <defs>
     <path id="m53be55b7ff" d="M 0 3 
C 0.795609 3 1.55874 2.683901 2.12132 2.12132 
C 2.683901 1.55874 3 0.795609 3 0 
C 3 -0.795609 2.683901 -1.55874 2.12132 -2.12132 
C 1.55874 -2.683901 0.795609 -3 0 -3 
C -0.795609 -3 -1.55874 -2.683901 -2.12132 -2.12132 
C -2.683901 -1.55874 -3 -0.795609 -3 0 
C -3 0.795609 -2.683901 1.55874 -2.12132 2.12132 
C -1.55874 2.683901 -0.795609 3 0 3 
z
" style="stroke: #ff0000"/>
    </defs>
    <g clip-path="url(#pdd79702d3d)">
     <use xlink:href="#m53be55b7ff" x="72.102273" y="163.879004" style="fill: #ff0000; stroke: #ff0000"/>
     <use xlink:href="#m53be55b7ff" x="99.317905" y="159.22912" style="fill: #ff0000; stroke: #ff0000"/>
     <use xlink:href="#m53be55b7ff" x="126.540134" y="124.671709" style="fill: #ff0000; stroke: #ff0000"/>
     <use xlink:href="#m53be55b7ff" x="153.749243" y="173.26151" style="fill: #ff0000; stroke: #ff0000"/>
     <use xlink:href="#m53be55b7ff" x="180.959865" y="255.813255" style="fill: #ff0000; stroke: #ff0000"/>
     <use xlink:href="#m53be55b7ff" x="208.172761" y="328.533854" style="fill: #ff0000; stroke: #ff0000"/>
     <use xlink:href="#m53be55b7ff" x="235.375914" y="332.874805" style="fill: #ff0000; stroke: #ff0000"/>
     <use xlink:href="#m53be55b7ff" x="262.593134" y="383.969447" style="fill: #ff0000; stroke: #ff0000"/>
     <use xlink:href="#m53be55b7ff" x="289.808489" y="468.112949" style="fill: #ff0000; stroke: #ff0000"/>
     <use xlink:href="#m53be55b7ff" x="317.015091" y="521.369368" style="fill: #ff0000; stroke: #ff0000"/>
     <use xlink:href="#m53be55b7ff" x="344.23526" y="564.398974" style="fill: #ff0000; stroke: #ff0000"/>
     <use xlink:href="#m53be55b7ff" x="371.451362" y="601.644259" style="fill: #ff0000; stroke: #ff0000"/>
    </g>
   </g>
   <g id="matplotlib.axis_1">
    <g id="xtick_1">
     <g id="line2d_1">
      <defs>
       <path id="m580ae6ff22" d="M 0 0 
L 0 3.5 
" style="stroke: #000000; stroke-width: 0.8"/>
      </defs>
      <g>
       <use xlink:href="#m580ae6ff22" x="57.189637" y="633.1104" style="stroke: #000000; stroke-width: 0.8"/>
      </g>
     </g>
     <g id="text_1">
      <!-- 0 -->
      <g transform="translate(54.008387 647.708838) scale(0.1 -0.1)">
       <defs>
        <path id="DejaVuSans-30" d="M 2034 4250 
Q 1547 4250 1301 3770 
Q 1056 3291 1056 2328 
Q 1056 1369 1301 889 
Q 1547 409 2034 409 
Q 2525 409 2770 889 
Q 3016 1369 3016 2328 
Q 3016 3291 2770 3770 
Q 2525 4250 2034 4250 
z
M 2034 4750 
Q 2819 4750 3233 4129 
Q 3647 3509 3647 2328 
Q 3647 1150 3233 529 
Q 2819 -91 2034 -91 
Q 1250 -91 836 529 
Q 422 1150 422 2328 
Q 422 3509 836 4129 
Q 1250 4750 2034 4750 
z
" transform="scale(0.015625)"/>
       </defs>
       <use xlink:href="#DejaVuSans-30"/>
      </g>
     </g>
    </g>
    <g id="xtick_2">
     <g id="line2d_2">
      <g>
       <use xlink:href="#m580ae6ff22" x="125.221521" y="633.1104" style="stroke: #000000; stroke-width: 0.8"/>
      </g>
     </g>
     <g id="text_2">
      <!-- 50 -->
      <g transform="translate(118.859021 647.708838) scale(0.1 -0.1)">
       <defs>
        <path id="DejaVuSans-35" d="M 691 4666 
L 3169 4666 
L 3169 4134 
L 1269 4134 
L 1269 2991 
Q 1406 3038 1543 3061 
Q 1681 3084 1819 3084 
Q 2600 3084 3056 2656 
Q 3513 2228 3513 1497 
Q 3513 744 3044 326 
Q 2575 -91 1722 -91 
Q 1428 -91 1123 -41 
Q 819 9 494 109 
L 494 744 
Q 775 591 1075 516 
Q 1375 441 1709 441 
Q 2250 441 2565 725 
Q 2881 1009 2881 1497 
Q 2881 1984 2565 2268 
Q 2250 2553 1709 2553 
Q 1456 2553 1204 2497 
Q 953 2441 691 2322 
L 691 4666 
z
" transform="scale(0.015625)"/>
       </defs>
       <use xlink:href="#DejaVuSans-35"/>
       <use xlink:href="#DejaVuSans-30" x="63.623047"/>
      </g>
     </g>
    </g>
    <g id="xtick_3">
     <g id="line2d_3">
      <g>
       <use xlink:href="#m580ae6ff22" x="193.253404" y="633.1104" style="stroke: #000000; stroke-width: 0.8"/>
      </g>
     </g>
     <g id="text_3">
      <!-- 100 -->
      <g transform="translate(183.709654 647.708838) scale(0.1 -0.1)">
       <defs>
        <path id="DejaVuSans-31" d="M 794 531 
L 1825 531 
L 1825 4091 
L 703 3866 
L 703 4441 
L 1819 4666 
L 2450 4666 
L 2450 531 
L 3481 531 
L 3481 0 
L 794 0 
L 794 531 
z
" transform="scale(0.015625)"/>
       </defs>
       <use xlink:href="#DejaVuSans-31"/>
       <use xlink:href="#DejaVuSans-30" x="63.623047"/>
       <use xlink:href="#DejaVuSans-30" x="127.246094"/>
      </g>
     </g>
    </g>
    <g id="xtick_4">
     <g id="line2d_4">
      <g>
       <use xlink:href="#m580ae6ff22" x="261.285288" y="633.1104" style="stroke: #000000; stroke-width: 0.8"/>
      </g>
     </g>
     <g id="text_4">
      <!-- 150 -->
      <g transform="translate(251.741538 647.708838) scale(0.1 -0.1)">
       <use xlink:href="#DejaVuSans-31"/>
       <use xlink:href="#DejaVuSans-35" x="63.623047"/>
       <use xlink:href="#DejaVuSans-30" x="127.246094"/>
      </g>
     </g>
    </g>
    <g id="xtick_5">
     <g id="line2d_5">
      <g>
       <use xlink:href="#m580ae6ff22" x="329.317172" y="633.1104" style="stroke: #000000; stroke-width: 0.8"/>
      </g>
     </g>
     <g id="text_5">
      <!-- 200 -->
      <g transform="translate(319.773422 647.708838) scale(0.1 -0.1)">
       <defs>
        <path id="DejaVuSans-32" d="M 1228 531 
L 3431 531 
L 3431 0 
L 469 0 
L 469 531 
Q 828 903 1448 1529 
Q 2069 2156 2228 2338 
Q 2531 2678 2651 2914 
Q 2772 3150 2772 3378 
Q 2772 3750 2511 3984 
Q 2250 4219 1831 4219 
Q 1534 4219 1204 4116 
Q 875 4013 500 3803 
L 500 4441 
Q 881 4594 1212 4672 
Q 1544 4750 1819 4750 
Q 2544 4750 2975 4387 
Q 3406 4025 3406 3419 
Q 3406 3131 3298 2873 
Q 3191 2616 2906 2266 
Q 2828 2175 2409 1742 
Q 1991 1309 1228 531 
z
" transform="scale(0.015625)"/>
       </defs>
       <use xlink:href="#DejaVuSans-32"/>
       <use xlink:href="#DejaVuSans-30" x="63.623047"/>
       <use xlink:href="#DejaVuSans-30" x="127.246094"/>
      </g>
     </g>
    </g>
    <g id="xtick_6">
     <g id="line2d_6">
      <g>
       <use xlink:href="#m580ae6ff22" x="397.349055" y="633.1104" style="stroke: #000000; stroke-width: 0.8"/>
      </g>
     </g>
     <g id="text_6">
      <!-- 250 -->
      <g transform="translate(387.805305 647.708838) scale(0.1 -0.1)">
       <use xlink:href="#DejaVuSans-32"/>
       <use xlink:href="#DejaVuSans-35" x="63.623047"/>
       <use xlink:href="#DejaVuSans-30" x="127.246094"/>
      </g>
     </g>
    </g>
   </g>
   <g id="matplotlib.axis_2">
    <g id="ytick_1">
     <g id="line2d_7">
      <defs>
       <path id="m1b9d7e594b" d="M 0 0 
L -3.5 0 
" style="stroke: #000000; stroke-width: 0.8"/>
      </defs>
      <g>
       <use xlink:href="#m1b9d7e594b" x="56.25" y="573.512295" style="stroke: #000000; stroke-width: 0.8"/>
      </g>
     </g>
     <g id="text_7">
      <!-- 80 -->
      <g transform="translate(36.525 577.311514) scale(0.1 -0.1)">
       <defs>
        <path id="DejaVuSans-38" d="M 2034 2216 
Q 1584 2216 1326 1975 
Q 1069 1734 1069 1313 
Q 1069 891 1326 650 
Q 1584 409 2034 409 
Q 2484 409 2743 651 
Q 3003 894 3003 1313 
Q 3003 1734 2745 1975 
Q 2488 2216 2034 2216 
z
M 1403 2484 
Q 997 2584 770 2862 
Q 544 3141 544 3541 
Q 544 4100 942 4425 
Q 1341 4750 2034 4750 
Q 2731 4750 3128 4425 
Q 3525 4100 3525 3541 
Q 3525 3141 3298 2862 
Q 3072 2584 2669 2484 
Q 3125 2378 3379 2068 
Q 3634 1759 3634 1313 
Q 3634 634 3220 271 
Q 2806 -91 2034 -91 
Q 1263 -91 848 271 
Q 434 634 434 1313 
Q 434 1759 690 2068 
Q 947 2378 1403 2484 
z
M 1172 3481 
Q 1172 3119 1398 2916 
Q 1625 2713 2034 2713 
Q 2441 2713 2670 2916 
Q 2900 3119 2900 3481 
Q 2900 3844 2670 4047 
Q 2441 4250 2034 4250 
Q 1625 4250 1398 4047 
Q 1172 3844 1172 3481 
z
" transform="scale(0.015625)"/>
       </defs>
       <use xlink:href="#DejaVuSans-38"/>
       <use xlink:href="#DejaVuSans-30" x="63.623047"/>
      </g>
     </g>
    </g>
    <g id="ytick_2">
     <g id="line2d_8">
      <g>
       <use xlink:href="#m1b9d7e594b" x="56.25" y="504.777939" style="stroke: #000000; stroke-width: 0.8"/>
      </g>
     </g>
     <g id="text_8">
      <!-- 90 -->
      <g transform="translate(36.525 508.577158) scale(0.1 -0.1)">
       <defs>
        <path id="DejaVuSans-39" d="M 703 97 
L 703 672 
Q 941 559 1184 500 
Q 1428 441 1663 441 
Q 2288 441 2617 861 
Q 2947 1281 2994 2138 
Q 2813 1869 2534 1725 
Q 2256 1581 1919 1581 
Q 1219 1581 811 2004 
Q 403 2428 403 3163 
Q 403 3881 828 4315 
Q 1253 4750 1959 4750 
Q 2769 4750 3195 4129 
Q 3622 3509 3622 2328 
Q 3622 1225 3098 567 
Q 2575 -91 1691 -91 
Q 1453 -91 1209 -44 
Q 966 3 703 97 
z
M 1959 2075 
Q 2384 2075 2632 2365 
Q 2881 2656 2881 3163 
Q 2881 3666 2632 3958 
Q 2384 4250 1959 4250 
Q 1534 4250 1286 3958 
Q 1038 3666 1038 3163 
Q 1038 2656 1286 2365 
Q 1534 2075 1959 2075 
z
" transform="scale(0.015625)"/>
       </defs>
       <use xlink:href="#DejaVuSans-39"/>
       <use xlink:href="#DejaVuSans-30" x="63.623047"/>
      </g>
     </g>
    </g>
    <g id="ytick_3">
     <g id="line2d_9">
      <g>
       <use xlink:href="#m1b9d7e594b" x="56.25" y="436.043583" style="stroke: #000000; stroke-width: 0.8"/>
      </g>
     </g>
     <g id="text_9">
      <!-- 100 -->
      <g transform="translate(30.1625 439.842801) scale(0.1 -0.1)">
       <use xlink:href="#DejaVuSans-31"/>
       <use xlink:href="#DejaVuSans-30" x="63.623047"/>
       <use xlink:href="#DejaVuSans-30" x="127.246094"/>
      </g>
     </g>
    </g>
    <g id="ytick_4">
     <g id="line2d_10">
      <g>
       <use xlink:href="#m1b9d7e594b" x="56.25" y="367.309227" style="stroke: #000000; stroke-width: 0.8"/>
      </g>
     </g>
     <g id="text_10">
      <!-- 110 -->
      <g transform="translate(30.1625 371.108445) scale(0.1 -0.1)">
       <use xlink:href="#DejaVuSans-31"/>
       <use xlink:href="#DejaVuSans-31" x="63.623047"/>
       <use xlink:href="#DejaVuSans-30" x="127.246094"/>
      </g>
     </g>
    </g>
    <g id="ytick_5">
     <g id="line2d_11">
      <g>
       <use xlink:href="#m1b9d7e594b" x="56.25" y="298.57487" style="stroke: #000000; stroke-width: 0.8"/>
      </g>
     </g>
     <g id="text_11">
      <!-- 120 -->
      <g transform="translate(30.1625 302.374089) scale(0.1 -0.1)">
       <use xlink:href="#DejaVuSans-31"/>
       <use xlink:href="#DejaVuSans-32" x="63.623047"/>
       <use xlink:href="#DejaVuSans-30" x="127.246094"/>
      </g>
     </g>
    </g>
    <g id="ytick_6">
     <g id="line2d_12">
      <g>
       <use xlink:href="#m1b9d7e594b" x="56.25" y="229.840514" style="stroke: #000000; stroke-width: 0.8"/>
      </g>
     </g>
     <g id="text_12">
      <!-- 130 -->
      <g transform="translate(30.1625 233.639733) scale(0.1 -0.1)">
       <defs>
        <path id="DejaVuSans-33" d="M 2597 2516 
Q 3050 2419 3304 2112 
Q 3559 1806 3559 1356 
Q 3559 666 3084 287 
Q 2609 -91 1734 -91 
Q 1441 -91 1130 -33 
Q 819 25 488 141 
L 488 750 
Q 750 597 1062 519 
Q 1375 441 1716 441 
Q 2309 441 2620 675 
Q 2931 909 2931 1356 
Q 2931 1769 2642 2001 
Q 2353 2234 1838 2234 
L 1294 2234 
L 1294 2753 
L 1863 2753 
Q 2328 2753 2575 2939 
Q 2822 3125 2822 3475 
Q 2822 3834 2567 4026 
Q 2313 4219 1838 4219 
Q 1578 4219 1281 4162 
Q 984 4106 628 3988 
L 628 4550 
Q 988 4650 1302 4700 
Q 1616 4750 1894 4750 
Q 2613 4750 3031 4423 
Q 3450 4097 3450 3541 
Q 3450 3153 3228 2886 
Q 3006 2619 2597 2516 
z
" transform="scale(0.015625)"/>
       </defs>
       <use xlink:href="#DejaVuSans-31"/>
       <use xlink:href="#DejaVuSans-33" x="63.623047"/>
       <use xlink:href="#DejaVuSans-30" x="127.246094"/>
      </g>
     </g>
    </g>
    <g id="ytick_7">
     <g id="line2d_13">
      <g>
       <use xlink:href="#m1b9d7e594b" x="56.25" y="161.106158" style="stroke: #000000; stroke-width: 0.8"/>
      </g>
     </g>
     <g id="text_13">
      <!-- 140 -->
      <g transform="translate(30.1625 164.905377) scale(0.1 -0.1)">
       <defs>
        <path id="DejaVuSans-34" d="M 2419 4116 
L 825 1625 
L 2419 1625 
L 2419 4116 
z
M 2253 4666 
L 3047 4666 
L 3047 1625 
L 3713 1625 
L 3713 1100 
L 3047 1100 
L 3047 0 
L 2419 0 
L 2419 1100 
L 313 1100 
L 313 1709 
L 2253 4666 
z
" transform="scale(0.015625)"/>
       </defs>
       <use xlink:href="#DejaVuSans-31"/>
       <use xlink:href="#DejaVuSans-34" x="63.623047"/>
       <use xlink:href="#DejaVuSans-30" x="127.246094"/>
      </g>
     </g>
    </g>
    <g id="ytick_8">
     <g id="line2d_14">
      <g>
       <use xlink:href="#m1b9d7e594b" x="56.25" y="92.371802" style="stroke: #000000; stroke-width: 0.8"/>
      </g>
     </g>
     <g id="text_14">
      <!-- 150 -->
      <g transform="translate(30.1625 96.171021) scale(0.1 -0.1)">
       <use xlink:href="#DejaVuSans-31"/>
       <use xlink:href="#DejaVuSans-35" x="63.623047"/>
       <use xlink:href="#DejaVuSans-30" x="127.246094"/>
      </g>
     </g>
    </g>
   </g>
   <g id="line2d_15">
    <path d="M 72.102273 163.879004 
L 73.465918 148.125504 
L 74.824024 146.646378 
L 76.18461 139.748201 
L 77.543345 133.753712 
L 78.905953 143.112015 
L 80.26696 136.499578 
L 81.624127 148.351118 
L 82.98884 149.466258 
L 84.355184 150.195834 
L 85.717626 145.5845 
L 87.076563 147.383028 
L 88.435453 132.604567 
L 91.161885 149.154771 
L 92.521343 150.710424 
L 93.875315 151.884733 
L 95.234441 159.910654 
L 96.602892 151.676746 
L 97.960701 158.275452 
L 99.317905 159.22912 
L 100.67703 154.20082 
L 102.041485 147.986106 
L 103.399783 150.252041 
L 104.764625 139.818602 
L 106.123521 139.365191 
L 107.480057 133.640452 
L 108.842647 130.143779 
L 110.207979 124.330123 
L 111.562525 121.122897 
L 112.924349 112.997645 
L 114.285916 115.481286 
L 115.645644 110.2608 
L 117.004635 115.63373 
L 118.367279 116.566423 
L 119.731087 115.60158 
L 121.090083 117.802881 
L 122.454375 119.798579 
L 123.817237 112.250966 
L 125.179272 113.010283 
L 126.540134 124.671709 
L 127.900071 124.347012 
L 129.24968 118.399201 
L 130.618159 111.302647 
L 131.972256 116.383079 
L 133.337289 118.526003 
L 134.696329 122.308812 
L 136.054934 122.991043 
L 137.41711 126.341396 
L 138.781586 126.416096 
L 140.138383 125.65512 
L 141.50401 129.204329 
L 142.86062 129.302914 
L 144.220055 135.541554 
L 145.580331 139.302536 
L 146.940673 147.067 
L 148.300926 147.867912 
L 149.664574 144.043981 
L 151.024308 162.207994 
L 152.383873 171.510868 
L 153.749243 173.26151 
L 155.101036 181.998462 
L 156.469936 184.40485 
L 157.824707 191.687764 
L 159.186745 181.040328 
L 160.538205 192.970964 
L 161.905167 195.74318 
L 163.26942 195.53549 
L 164.627963 198.072736 
L 165.987575 196.425699 
L 167.34911 196.051516 
L 168.712209 190.781072 
L 170.071664 193.296129 
L 171.430513 188.524914 
L 172.793595 188.656242 
L 174.153804 189.968932 
L 175.511521 188.722125 
L 176.871486 187.158989 
L 178.233659 187.412803 
L 180.959865 255.813255 
L 182.319345 262.888162 
L 183.67715 268.21789 
L 185.037778 275.121276 
L 186.395666 281.129295 
L 187.758195 288.387908 
L 189.116663 297.815482 
L 190.478411 301.638215 
L 191.842808 306.431737 
L 193.199416 321.514413 
L 194.562365 322.596418 
L 195.922967 328.43118 
L 197.281275 328.429987 
L 198.640968 330.018363 
L 200.002672 316.303891 
L 201.363255 315.42593 
L 202.724197 313.940093 
L 204.088592 312.921594 
L 205.457188 322.678883 
L 206.810305 326.212571 
L 208.172761 328.533854 
L 209.532931 321.136097 
L 210.893173 324.689536 
L 213.625868 323.27425 
L 214.984017 332.709764 
L 216.335148 332.653192 
L 217.692219 333.858113 
L 219.057637 326.900011 
L 220.415175 325.657889 
L 221.77806 326.690837 
L 223.142238 329.491219 
L 224.491904 328.024654 
L 225.860686 325.425388 
L 227.22416 332.434395 
L 228.590383 335.039688 
L 229.935732 333.13218 
L 231.303439 330.696505 
L 232.65583 332.722002 
L 234.021084 333.357623 
L 235.375914 332.874805 
L 236.745658 335.93987 
L 238.097573 327.688803 
L 239.464198 322.340397 
L 240.82716 326.767647 
L 242.192363 325.446207 
L 243.544799 329.907002 
L 244.926258 333.54302 
L 246.277215 328.634239 
L 247.633106 332.990155 
L 248.986221 338.819435 
L 250.357511 343.903651 
L 251.710172 345.85109 
L 253.069728 348.778953 
L 254.432877 352.926802 
L 255.789635 359.246515 
L 257.150243 360.382622 
L 258.51112 368.389628 
L 259.873585 370.490184 
L 261.232323 381.380123 
L 262.593134 383.969447 
L 263.959278 381.817349 
L 265.314299 384.225851 
L 266.675349 391.350188 
L 268.035768 397.215123 
L 269.398808 405.316949 
L 270.755682 407.667991 
L 272.12377 410.638669 
L 273.485743 418.000899 
L 274.838499 421.552192 
L 276.201534 428.705927 
L 277.565598 431.311633 
L 278.923287 435.724211 
L 280.288063 441.453672 
L 283.002451 449.999424 
L 284.367949 452.902992 
L 285.729272 455.444094 
L 287.093891 467.92614 
L 288.450375 466.700359 
L 289.808489 468.112949 
L 291.171391 470.990093 
L 292.529161 472.468554 
L 296.61864 482.273382 
L 297.978037 484.191504 
L 299.329231 487.082076 
L 300.697422 490.935864 
L 302.059631 492.561992 
L 303.415145 494.579947 
L 304.790065 497.649227 
L 306.141035 498.861694 
L 307.499127 499.537594 
L 308.860468 505.153774 
L 310.234249 508.009099 
L 311.5795 506.669182 
L 312.94325 512.326455 
L 314.294624 514.191276 
L 315.674533 516.441631 
L 317.015091 521.369368 
L 318.394743 523.798443 
L 319.750444 526.73599 
L 321.106897 528.105365 
L 322.478237 529.701281 
L 323.831344 531.909271 
L 325.184064 533.354156 
L 326.54649 537.340078 
L 327.915191 538.314674 
L 329.260599 537.705593 
L 330.63757 540.414918 
L 331.989105 545.766383 
L 333.349263 548.781968 
L 334.708845 553.147152 
L 336.070378 553.627981 
L 337.431064 555.069507 
L 338.794555 563.032495 
L 340.154058 563.968491 
L 341.524183 565.195605 
L 342.877091 566.054799 
L 344.23526 564.398974 
L 345.587624 567.355779 
L 346.957771 571.677699 
L 348.312153 573.818109 
L 349.686946 575.625843 
L 351.038806 576.522389 
L 352.410758 577.261622 
L 355.122687 580.447538 
L 356.472992 582.99029 
L 357.841449 583.859571 
L 359.201771 587.070193 
L 360.564645 589.917505 
L 361.924642 590.544299 
L 363.287813 594.656895 
L 364.649363 595.894513 
L 366.007877 597.37504 
L 367.363862 601.310604 
L 368.72512 602.090123 
L 370.085227 602.512204 
L 371.451362 601.644259 
L 372.805765 605.188837 
L 374.171768 606.968905 
L 375.523398 608.2128 
L 376.888553 606.731048 
L 378.245762 605.898292 
L 379.615172 607.442953 
L 380.973431 608.122983 
L 382.32743 607.664853 
L 383.686602 604.651009 
L 385.061289 603.933217 
L 386.419395 598.262554 
L 387.786281 598.0293 
L 389.147727 595.035596 
L 389.147727 595.035596 
" clip-path="url(#pdd79702d3d)" style="fill: none; stroke: #1f77b4; stroke-width: 1.5; stroke-linecap: square"/>
   </g>
   <g id="patch_3">
    <path d="M 56.25 633.1104 
L 56.25 85.3632 
" style="fill: none; stroke: #000000; stroke-width: 0.8; stroke-linejoin: miter; stroke-linecap: square"/>
   </g>
   <g id="patch_4">
    <path d="M 405 633.1104 
L 405 85.3632 
" style="fill: none; stroke: #000000; stroke-width: 0.8; stroke-linejoin: miter; stroke-linecap: square"/>
   </g>
   <g id="patch_5">
    <path d="M 56.25 633.1104 
L 405 633.1104 
" style="fill: none; stroke: #000000; stroke-width: 0.8; stroke-linejoin: miter; stroke-linecap: square"/>
   </g>
   <g id="patch_6">
    <path d="M 56.25 85.3632 
L 405 85.3632 
" style="fill: none; stroke: #000000; stroke-width: 0.8; stroke-linejoin: miter; stroke-linecap: square"/>
   </g>
  </g>
 </g>
 <defs>
  <clipPath id="pdd79702d3d">
   <rect x="56.25" y="85.3632" width="348.75" height="547.7472"/>
  </clipPath>
 </defs>
</svg>
